<svg width="102" height="35" viewBox="0 0 102 35" fill="none" xmlns="http://www.w3.org/2000/svg">
<rect x="0.634766" y="7.64746" width="20.3522" height="20.3522" rx="6.5573" stroke="white" stroke-width="1.27048" stroke-linecap="round" stroke-linejoin="round" stroke-dasharray="2.66 2.66"/>
<path d="M12.5202 24.0505C11.4663 24.0505 10.7068 23.8571 10.2415 23.4702C9.77619 23.0778 9.54355 22.4416 9.54355 21.5615V16.4321H8.12247V14.8177H9.54355V12.5557H11.671V14.8177H13.605V16.4321H11.671V21.0653C11.671 21.525 11.7663 21.8586 11.9569 22.066C12.1531 22.2734 12.4698 22.3771 12.907 22.3771C13.0528 22.3771 13.1733 22.3743 13.2686 22.3687C13.3695 22.3575 13.4816 22.3463 13.605 22.3351V23.9495C13.4592 23.9776 13.291 24 13.1004 24.0168C12.9155 24.0392 12.7221 24.0505 12.5202 24.0505Z" fill="white"/>
<path d="M38.423 28.3583C36.4454 28.3583 34.7258 27.9236 33.264 27.0542C31.8119 26.1848 30.6893 24.9524 29.8964 23.3569C29.113 21.7519 28.7213 19.8507 28.7213 17.6534V17.6391C28.7213 15.4417 29.1178 13.5453 29.9107 11.9499C30.7037 10.3544 31.8262 9.12678 33.2784 8.26696C34.7305 7.39758 36.4454 6.96289 38.423 6.96289C40.0089 6.96289 41.4276 7.2686 42.6792 7.88003C43.9402 8.49147 44.9673 9.33696 45.7602 10.4165C46.5532 11.4961 47.0404 12.7381 47.2219 14.1424L47.2362 14.2858H43.6106L43.539 14.0135C43.3384 13.2205 43.0088 12.5374 42.5502 11.9642C42.0916 11.391 41.5136 10.9468 40.8162 10.6315C40.1188 10.3162 39.3211 10.1586 38.423 10.1586C37.2193 10.1586 36.1731 10.4643 35.2846 11.0757C34.3962 11.6872 33.7083 12.5518 33.2211 13.6695C32.7338 14.7778 32.4902 16.1009 32.4902 17.6391V17.6534C32.4902 19.182 32.7338 20.5099 33.2211 21.6373C33.7083 22.7551 34.3962 23.6244 35.2846 24.2454C36.1827 24.8569 37.2288 25.1626 38.423 25.1626C39.3019 25.1626 40.0853 25.0097 40.7732 24.704C41.4706 24.3887 42.0582 23.9349 42.5359 23.3426C43.0135 22.7503 43.3622 22.029 43.582 21.1787L43.625 21.0354H47.2506L47.2219 21.193C47.0499 22.5974 46.5675 23.8394 45.7745 24.919C44.9816 25.9985 43.9546 26.844 42.6935 27.4554C41.4324 28.0573 40.0089 28.3583 38.423 28.3583ZM53.8357 28.2579C52.8326 28.2579 51.9441 28.0669 51.1702 27.6847C50.406 27.293 49.8089 26.7533 49.3789 26.0654C48.9586 25.368 48.7484 24.5702 48.7484 23.6722V23.6435C48.7484 22.7359 48.9729 21.9621 49.4219 21.322C49.8805 20.6724 50.5397 20.1612 51.3995 19.7886C52.2594 19.4065 53.3007 19.1772 54.5236 19.1008L60.3274 18.7425V21.107L55.0251 21.4366C54.1462 21.494 53.4727 21.7042 53.0045 22.0672C52.5364 22.4302 52.3024 22.9127 52.3024 23.5146V23.5289C52.3024 24.1499 52.5364 24.6419 53.0045 25.0049C53.4822 25.3584 54.1128 25.5352 54.8962 25.5352C55.584 25.5352 56.1955 25.3966 56.7305 25.1196C57.275 24.8425 57.7049 24.4652 58.0202 23.9875C58.3355 23.5098 58.4931 22.97 58.4931 22.3681V17.811C58.4931 17.0468 58.2495 16.4449 57.7623 16.0054C57.2846 15.5564 56.5919 15.3319 55.6843 15.3319C54.8436 15.3319 54.1701 15.5134 53.6637 15.8764C53.1574 16.2299 52.8421 16.6885 52.7179 17.2522L52.6893 17.3811H49.3933L49.4076 17.2092C49.484 16.3111 49.785 15.5086 50.3104 14.8016C50.8359 14.0851 51.5619 13.5215 52.4886 13.1107C53.4249 12.6998 54.5331 12.4944 55.8133 12.4944C57.0839 12.4944 58.1826 12.7046 59.1093 13.125C60.0456 13.5453 60.7669 14.1329 61.2732 14.8876C61.7891 15.6424 62.0471 16.5309 62.0471 17.5531V28H58.4931V25.6641H58.4071C58.1205 26.1896 57.7479 26.6482 57.2894 27.0399C56.8308 27.4316 56.3053 27.7325 55.713 27.9427C55.1302 28.1529 54.5045 28.2579 53.8357 28.2579ZM64.6483 33.0157V12.8097H68.2023V15.4322H68.2883C68.5844 14.8208 68.957 14.3001 69.406 13.8702C69.8646 13.4307 70.3948 13.0915 70.9967 12.8527C71.6082 12.6139 72.2721 12.4944 72.9887 12.4944C74.2784 12.4944 75.3914 12.8145 76.3277 13.4546C77.2735 14.0851 77.9995 14.9927 78.5059 16.1774C79.0218 17.362 79.2797 18.7712 79.2797 20.4049V20.4192C79.2797 22.0433 79.0218 23.4477 78.5059 24.6323C77.9995 25.8074 77.2782 26.715 76.342 27.3551C75.4153 27.9857 74.3166 28.3009 73.046 28.3009C72.3295 28.3009 71.6607 28.1863 71.0397 27.957C70.4283 27.7277 69.8885 27.3981 69.4204 26.9682C68.9522 26.5383 68.5749 26.0272 68.2883 25.4348H68.2023V33.0157H64.6483ZM71.9425 25.3059C72.7068 25.3059 73.366 25.1052 73.9201 24.704C74.4742 24.3027 74.8994 23.7391 75.1955 23.013C75.5013 22.2774 75.6541 21.4128 75.6541 20.4192V20.4049C75.6541 19.3826 75.5013 18.5085 75.1955 17.7824C74.8994 17.0468 74.4695 16.4831 73.9058 16.0914C73.3517 15.6997 72.6973 15.5038 71.9425 15.5038C71.2069 15.5038 70.5573 15.7045 69.9936 16.1057C69.4299 16.507 68.9857 17.0754 68.6609 17.811C68.3456 18.5371 68.188 19.4017 68.188 20.4049V20.4192C68.188 21.4128 68.3456 22.2774 68.6609 23.013C68.9857 23.7391 69.4299 24.3027 69.9936 24.704C70.5573 25.1052 71.2069 25.3059 71.9425 25.3059ZM81.3938 28V7.32115H84.962V28H81.3938ZM89.7415 33.0443C89.3976 33.0443 89.0585 33.0252 88.7241 32.987C88.3992 32.9583 88.127 32.9249 87.9072 32.8867V30.1782C88.041 30.1973 88.2082 30.2212 88.4088 30.2499C88.6094 30.2785 88.8387 30.2929 89.0967 30.2929C89.7845 30.2929 90.3291 30.1735 90.7303 29.9346C91.1316 29.7053 91.4469 29.2706 91.6761 28.6305L91.8911 28.0143L86.4312 12.8097H90.3148L94.098 25.7071L93.5534 24.9619H94.313L93.7684 25.7071L97.5516 12.8097H101.306L95.832 28.5159C95.4498 29.6241 94.9865 30.5078 94.4419 31.167C93.8974 31.8358 93.2382 32.3135 92.4643 32.6001C91.7 32.8962 90.7924 33.0443 89.7415 33.0443Z" fill="white"/>
</svg>
