<svg width="382" height="429" viewBox="0 0 382 429" fill="none" xmlns="http://www.w3.org/2000/svg">
<rect width="382" height="134.868" rx="31.645" fill="#F3F3F3"/>
<path d="M37.0311 46.082V26.1909H40.3161V46.082H37.0311ZM23.8909 46.082V26.1909H27.1759V46.082H23.8909ZM25.6389 37.342V34.5693H38.327V37.342H25.6389ZM44.7165 46.082V30.4102H47.9714V46.082H44.7165ZM46.344 27.7882C45.6407 27.7882 45.1083 27.6476 44.7466 27.3663C44.385 27.0649 44.2042 26.6229 44.2042 26.0402C44.2042 25.4776 44.385 25.0457 44.7466 24.7443C45.1083 24.4429 45.6407 24.2922 46.344 24.2922C47.0673 24.2922 47.6098 24.4429 47.9714 24.7443C48.3331 25.0457 48.5139 25.4776 48.5139 26.0402C48.5139 26.6229 48.3331 27.0649 47.9714 27.3663C47.6098 27.6476 47.0673 27.7882 46.344 27.7882ZM57.7901 46.4738C56.464 46.4738 55.3187 46.1323 54.3543 45.4491C53.3899 44.7459 52.6565 43.7815 52.1542 42.5559C51.6519 41.3102 51.4008 39.8736 51.4008 38.2461C51.4008 36.6589 51.6319 35.2524 52.094 34.0268C52.5762 32.7811 53.2794 31.8066 54.2036 31.1034C55.148 30.4002 56.3033 30.0486 57.6695 30.0486C58.7545 30.0486 59.6486 30.2696 60.3518 30.7116C61.055 31.1335 61.6176 31.7162 62.0395 32.4596C62.4816 33.203 62.8131 34.0268 63.0341 34.9309H63.6368C63.5364 34.3483 63.4359 33.7455 63.3355 33.1227C63.235 32.4797 63.1546 31.8669 63.0944 31.2842C63.0341 30.6815 63.0039 30.149 63.0039 29.6869V24.8347H66.3191V38.3667V46.082H63.456L63.5766 41.7421H63.0341C62.793 42.7267 62.4514 43.5705 62.0094 44.2737C61.5674 44.977 60.9947 45.5195 60.2915 45.9012C59.6084 46.283 58.7746 46.4738 57.7901 46.4738ZM58.6942 43.7011C59.3974 43.7011 60.0203 43.5404 60.5628 43.2189C61.1053 42.8974 61.5573 42.4755 61.919 41.9531C62.2806 41.4307 62.5519 40.8681 62.7327 40.2654C62.9336 39.6425 63.0341 39.0599 63.0341 38.5174V38.0954C63.0341 37.6936 62.9738 37.2616 62.8533 36.7995C62.7528 36.3173 62.582 35.8451 62.3409 35.383C62.1199 34.9008 61.8386 34.4688 61.497 34.0871C61.1555 33.7053 60.7436 33.404 60.2614 33.1829C59.7993 32.9418 59.2769 32.8213 58.6942 32.8213C57.8503 32.8213 57.1371 33.0624 56.5544 33.5446C55.9918 34.0067 55.5598 34.6497 55.2585 35.4734C54.9571 36.2972 54.8064 37.2415 54.8064 38.3064C54.8064 39.3914 54.9571 40.3458 55.2585 41.1695C55.5799 41.9732 56.032 42.5961 56.6147 43.0381C57.1973 43.4801 57.8905 43.7011 58.6942 43.7011ZM76.0895 46.4738C74.7634 46.4738 73.6182 46.1323 72.6538 45.4491C71.6894 44.7459 70.956 43.7815 70.4537 42.5559C69.9514 41.3102 69.7003 39.8736 69.7003 38.2461C69.7003 36.6589 69.9313 35.2524 70.3934 34.0268C70.8756 32.7811 71.5789 31.8066 72.5031 31.1034C73.4474 30.4002 74.6027 30.0486 75.969 30.0486C77.0539 30.0486 77.948 30.2696 78.6513 30.7116C79.3545 31.1335 79.9171 31.7162 80.339 32.4596C80.781 33.203 81.1125 34.0268 81.3335 34.9309H81.9363C81.8358 34.3483 81.7354 33.7455 81.6349 33.1227C81.5345 32.4797 81.4541 31.8669 81.3938 31.2842C81.3335 30.6815 81.3034 30.149 81.3034 29.6869V24.8347H84.6186V38.3667V46.082H81.7555L81.876 41.7421H81.3335C81.0924 42.7267 80.7509 43.5705 80.3089 44.2737C79.8668 44.977 79.2942 45.5195 78.591 45.9012C77.9079 46.283 77.074 46.4738 76.0895 46.4738ZM76.9937 43.7011C77.6969 43.7011 78.3197 43.5404 78.8622 43.2189C79.4047 42.8974 79.8568 42.4755 80.2184 41.9531C80.5801 41.4307 80.8513 40.8681 81.0322 40.2654C81.2331 39.6425 81.3335 39.0599 81.3335 38.5174V38.0954C81.3335 37.6936 81.2733 37.2616 81.1527 36.7995C81.0523 36.3173 80.8815 35.8451 80.6404 35.383C80.4194 34.9008 80.1381 34.4688 79.7965 34.0871C79.4549 33.7053 79.0431 33.404 78.5608 33.1829C78.0987 32.9418 77.5763 32.8213 76.9937 32.8213C76.1498 32.8213 75.4365 33.0624 74.8539 33.5446C74.2913 34.0067 73.8593 34.6497 73.5579 35.4734C73.2565 36.2972 73.1059 37.2415 73.1059 38.3064C73.1059 39.3914 73.2565 40.3458 73.5579 41.1695C73.8794 41.9732 74.3315 42.5961 74.9141 43.0381C75.4968 43.4801 76.19 43.7011 76.9937 43.7011ZM95.7151 46.4738C94.4693 46.4738 93.3643 46.293 92.3999 45.9313C91.4354 45.5496 90.6217 45.0172 89.9587 44.334C89.2956 43.6308 88.7933 42.797 88.4518 41.8326C88.1102 40.8481 87.9394 39.743 87.9394 38.5174C87.9394 37.2918 88.1102 36.1666 88.4518 35.1419C88.7933 34.0971 89.2755 33.193 89.8984 32.4295C90.5413 31.666 91.3249 31.0733 92.2492 30.6513C93.1935 30.2294 94.2584 30.0184 95.4438 30.0184C96.5489 30.0184 97.5334 30.1993 98.3973 30.5609C99.2814 30.9226 100.025 31.4751 100.628 32.2185C101.23 32.9418 101.682 33.856 101.984 34.9611C102.285 36.0461 102.396 37.3219 102.315 38.7886L90.0491 38.879V36.8296L100.386 36.7392L99.2412 38.005C99.3618 36.7995 99.2613 35.805 98.9398 35.0214C98.6184 34.2378 98.1562 33.6551 97.5535 33.2734C96.9507 32.8916 96.2575 32.7007 95.4739 32.7007C94.5899 32.7007 93.8164 32.9318 93.1533 33.3939C92.5104 33.8359 92.0081 34.4889 91.6464 35.3529C91.2848 36.2168 91.1039 37.2516 91.1039 38.4571C91.1039 40.2654 91.5058 41.6316 92.3094 42.5559C93.1131 43.46 94.2584 43.9121 95.7452 43.9121C96.368 43.9121 96.9005 43.8418 97.3425 43.7011C97.7845 43.5404 98.1562 43.3395 98.4576 43.0984C98.759 42.8372 99.0001 42.5358 99.1809 42.1942C99.3818 41.8326 99.5426 41.4609 99.6631 41.0791L102.526 41.7421C102.345 42.4856 102.064 43.1486 101.682 43.7313C101.321 44.2938 100.859 44.7861 100.296 45.208C99.7335 45.6099 99.0704 45.9213 98.3069 46.1423C97.5635 46.3633 96.6996 46.4738 95.7151 46.4738ZM105.7 46.082V36.4378V30.4102H108.533L108.352 35.2926H108.865C109.146 34.0871 109.518 33.1026 109.98 32.3391C110.462 31.5555 111.065 30.9728 111.788 30.5911C112.531 30.2093 113.395 30.0184 114.38 30.0184C116.128 30.0184 117.454 30.6413 118.358 31.887C119.282 33.1327 119.745 35.0314 119.745 37.5831V46.082H116.429V37.9146C116.429 36.1666 116.168 34.8908 115.646 34.0871C115.123 33.2633 114.34 32.8514 113.295 32.8514C112.391 32.8514 111.617 33.1428 110.974 33.7254C110.351 34.288 109.869 35.0314 109.528 35.9556C109.186 36.8799 108.995 37.8845 108.955 38.9694V46.082H105.7Z" fill="black"/>
<path d="M30.8899 109.177C29.584 109.177 28.4186 109.046 27.3939 108.785C26.3893 108.504 25.5354 108.102 24.8322 107.58C24.1491 107.037 23.6267 106.374 23.265 105.591C22.9234 104.787 22.7627 103.863 22.7828 102.818L25.7062 102.034C25.666 103.039 25.8569 103.873 26.2788 104.536C26.7007 105.199 27.3236 105.701 28.1474 106.043C28.9912 106.364 29.9557 106.525 31.0406 106.525C32.1055 106.525 32.9996 106.394 33.7229 106.133C34.4462 105.872 34.9887 105.52 35.3504 105.078C35.7321 104.616 35.923 104.094 35.923 103.511C35.923 102.848 35.6919 102.326 35.2298 101.944C34.7878 101.542 34.1951 101.231 33.4517 101.01C32.7083 100.768 31.8744 100.547 30.9502 100.346C30.0059 100.146 29.0716 99.9145 28.1474 99.6533C27.2231 99.3921 26.3793 99.0506 25.6158 98.6286C24.8724 98.1866 24.2696 97.624 23.8075 96.9409C23.3655 96.2578 23.1445 95.3938 23.1445 94.349C23.1445 93.1435 23.4458 92.1088 24.0486 91.2448C24.6514 90.3808 25.5053 89.7078 26.6103 89.2256C27.7355 88.7433 29.0616 88.5022 30.5886 88.5022C32.1156 88.5022 33.4517 88.7433 34.5969 89.2256C35.7623 89.6877 36.6764 90.3708 37.3395 91.2749C38.0226 92.159 38.3742 93.2339 38.3943 94.4997L35.3805 95.2833C35.3805 94.6002 35.26 93.9974 35.0189 93.475C34.7978 92.9526 34.4764 92.5206 34.0544 92.1791C33.6325 91.8375 33.1302 91.5864 32.5475 91.4256C31.9649 91.2448 31.3018 91.1544 30.5584 91.1544C29.6945 91.1544 28.941 91.285 28.2981 91.5462C27.6551 91.7873 27.1528 92.1289 26.7912 92.5709C26.4496 92.9928 26.2788 93.4951 26.2788 94.0778C26.2788 94.8011 26.53 95.3737 27.0323 95.7956C27.5547 96.1975 28.2378 96.529 29.0817 96.7902C29.9255 97.0313 30.8297 97.2624 31.7941 97.4834C32.658 97.6642 33.512 97.8852 34.3558 98.1464C35.2198 98.3875 36.0034 98.719 36.7066 99.141C37.4299 99.5629 38.0025 100.115 38.4245 100.799C38.8665 101.482 39.0875 102.356 39.0875 103.421C39.0875 104.586 38.7761 105.601 38.1532 106.465C37.5505 107.328 36.6463 108.002 35.4408 108.484C34.2353 108.946 32.7183 109.177 30.8899 109.177ZM47.6354 109.177C45.8673 109.177 44.5312 108.574 43.627 107.369C42.7229 106.143 42.2708 104.305 42.2708 101.853V93.1134H45.5559V101.492C45.5559 103.139 45.807 104.365 46.3093 105.169C46.8116 105.972 47.6053 106.374 48.6902 106.374C49.293 106.374 49.8254 106.223 50.2876 105.922C50.7497 105.621 51.1515 105.199 51.4931 104.656C51.8547 104.114 52.136 103.481 52.3369 102.758C52.558 102.014 52.7086 101.2 52.789 100.316V93.1134H56.0439V102.275V108.785H53.2712L53.4219 103.812H52.9096C52.6484 105.058 52.2767 106.083 51.7945 106.886C51.3323 107.67 50.7497 108.253 50.0464 108.634C49.3633 108.996 48.5596 109.177 47.6354 109.177ZM68.8114 109.177C67.8068 109.177 66.9428 108.976 66.2195 108.574C65.5163 108.172 64.9437 107.62 64.5017 106.917C64.0596 106.213 63.7281 105.39 63.5071 104.445H62.9947L63.0852 108.785H60.2522V101.07V87.5378H63.5372V92.5106C63.5372 93.0129 63.5071 93.5554 63.4468 94.1381C63.3865 94.7006 63.3062 95.2833 63.2057 95.8861C63.1253 96.4687 63.0349 97.0514 62.9345 97.6341H63.5071C63.7482 96.7299 64.0797 95.9162 64.5017 95.1929C64.9437 94.4495 65.5163 93.8568 66.2195 93.4147C66.9227 92.9727 67.7967 92.7517 68.8415 92.7517C70.1475 92.7517 71.2727 93.1033 72.217 93.8065C73.1613 94.4897 73.8846 95.4541 74.3869 96.6998C74.9093 97.9254 75.1705 99.362 75.1705 101.01C75.1705 102.617 74.9194 104.033 74.4171 105.259C73.9349 106.485 73.2216 107.449 72.2773 108.152C71.3329 108.835 70.1777 109.177 68.8114 109.177ZM67.8771 106.404C68.6808 106.404 69.374 106.183 69.9566 105.741C70.5393 105.299 70.9813 104.676 71.2827 103.873C71.6042 103.049 71.7649 102.095 71.7649 101.01C71.7649 99.9447 71.6142 99.0003 71.3129 98.1766C71.0115 97.3528 70.5694 96.7098 69.9868 96.2477C69.4242 95.7655 68.731 95.5244 67.9073 95.5244C67.3246 95.5244 66.7921 95.645 66.3099 95.8861C65.8478 96.1071 65.4359 96.4085 65.0743 96.7902C64.7327 97.172 64.4414 97.5939 64.2003 98.056C63.9793 98.5181 63.8085 98.9903 63.6879 99.4725C63.5674 99.9547 63.5071 100.397 63.5071 100.799V101.221C63.5071 101.763 63.5975 102.346 63.7783 102.969C63.9793 103.571 64.2605 104.134 64.6222 104.656C65.004 105.179 65.4661 105.601 66.0086 105.922C66.551 106.244 67.1739 106.404 67.8771 106.404ZM83.7648 109.117C82.2177 109.117 81.0624 108.695 80.2989 107.851C79.5555 107.007 79.1838 105.711 79.1838 103.963V95.7956H76.8632L76.9235 93.1134H78.4304C78.9528 93.1134 79.3446 93.033 79.6058 92.8723C79.867 92.6914 80.0277 92.38 80.088 91.938L80.3894 89.6173H82.3483V93.1134H86.6581V95.8559H82.3483V103.873C82.3483 104.656 82.5292 105.219 82.8908 105.56C83.2525 105.902 83.7849 106.073 84.4881 106.073C84.8699 106.073 85.2516 106.033 85.6334 105.952C86.0352 105.852 86.417 105.671 86.7786 105.41V108.574C86.1759 108.775 85.6233 108.916 85.121 108.996C84.6187 109.076 84.1667 109.117 83.7648 109.117ZM89.7286 108.785V93.1134H92.9835V108.785H89.7286ZM91.3561 90.4913C90.6529 90.4913 90.1204 90.3507 89.7588 90.0694C89.3971 89.768 89.2163 89.326 89.2163 88.7433C89.2163 88.1808 89.3971 87.7488 89.7588 87.4474C90.1204 87.146 90.6529 86.9953 91.3561 86.9953C92.0794 86.9953 92.6219 87.146 92.9835 87.4474C93.3452 87.7488 93.526 88.1808 93.526 88.7433C93.526 89.326 93.3452 89.768 92.9835 90.0694C92.6219 90.3507 92.0794 90.4913 91.3561 90.4913ZM102.41 109.117C100.863 109.117 99.708 108.695 98.9445 107.851C98.2011 107.007 97.8294 105.711 97.8294 103.963V95.7956H95.5088L95.5691 93.1134H97.076C97.5984 93.1134 97.9901 93.033 98.2513 92.8723C98.5125 92.6914 98.6733 92.38 98.7336 91.938L99.0349 89.6173H100.994V93.1134H105.304V95.8559H100.994V103.873C100.994 104.656 101.175 105.219 101.536 105.56C101.898 105.902 102.43 106.073 103.134 106.073C103.515 106.073 103.897 106.033 104.279 105.952C104.681 105.852 105.063 105.671 105.424 105.41V108.574C104.821 108.775 104.269 108.916 103.767 108.996C103.264 109.076 102.812 109.117 102.41 109.117ZM108.374 108.785V87.5378H111.599V108.785H108.374ZM122.715 109.177C121.469 109.177 120.364 108.996 119.4 108.634C118.435 108.253 117.622 107.72 116.959 107.037C116.296 106.334 115.793 105.5 115.452 104.536C115.11 103.551 114.939 102.446 114.939 101.221C114.939 99.9949 115.11 98.8697 115.452 97.845C115.793 96.8003 116.275 95.8961 116.898 95.1326C117.541 94.3691 118.325 93.7764 119.249 93.3545C120.193 92.9325 121.258 92.7216 122.444 92.7216C123.549 92.7216 124.533 92.9024 125.397 93.2641C126.281 93.6257 127.025 94.1782 127.627 94.9216C128.23 95.645 128.682 96.5591 128.984 97.6642C129.285 98.7492 129.396 100.025 129.315 101.492L117.049 101.582V99.5328L127.386 99.4424L126.241 100.708C126.362 99.5026 126.261 98.5081 125.94 97.7245C125.618 96.9409 125.156 96.3582 124.553 95.9765C123.951 95.5947 123.257 95.4039 122.474 95.4039C121.59 95.4039 120.816 95.6349 120.153 96.097C119.51 96.5391 119.008 97.192 118.646 98.056C118.285 98.92 118.104 99.9547 118.104 101.16C118.104 102.969 118.506 104.335 119.309 105.259C120.113 106.163 121.258 106.615 122.745 106.615C123.368 106.615 123.9 106.545 124.342 106.404C124.784 106.244 125.156 106.043 125.458 105.801C125.759 105.54 126 105.239 126.181 104.897C126.382 104.536 126.543 104.164 126.663 103.782L129.526 104.445C129.345 105.189 129.064 105.852 128.682 106.434C128.321 106.997 127.859 107.489 127.296 107.911C126.733 108.313 126.07 108.624 125.307 108.845C124.563 109.066 123.699 109.177 122.715 109.177ZM138.873 109.177C137.788 109.177 136.824 109.066 135.98 108.845C135.136 108.624 134.413 108.313 133.81 107.911C133.228 107.489 132.776 106.987 132.454 106.404C132.133 105.822 131.942 105.189 131.881 104.506L134.534 103.632C134.534 104.214 134.714 104.737 135.076 105.199C135.438 105.661 135.95 106.023 136.613 106.284C137.296 106.525 138.11 106.645 139.054 106.645C140.159 106.645 141.013 106.465 141.616 106.103C142.219 105.741 142.52 105.239 142.52 104.596C142.52 104.114 142.349 103.732 142.008 103.451C141.686 103.169 141.214 102.938 140.591 102.758C139.989 102.577 139.275 102.406 138.452 102.245C137.708 102.084 136.965 101.904 136.221 101.703C135.498 101.482 134.825 101.2 134.202 100.859C133.599 100.517 133.107 100.075 132.725 99.5328C132.364 98.9702 132.183 98.267 132.183 97.4231C132.183 96.4587 132.434 95.6349 132.936 94.9518C133.439 94.2486 134.162 93.7061 135.106 93.3243C136.071 92.9225 137.216 92.7216 138.542 92.7216C139.828 92.7216 140.933 92.9124 141.857 93.2942C142.801 93.6759 143.555 94.2084 144.117 94.8915C144.68 95.5746 145.022 96.3783 145.142 97.3026L142.369 98.1163C142.329 97.4934 142.138 96.971 141.797 96.5491C141.475 96.1272 141.033 95.8157 140.471 95.6148C139.908 95.3938 139.245 95.2833 138.482 95.2833C137.477 95.2833 136.683 95.4641 136.101 95.8258C135.538 96.1874 135.257 96.6797 135.257 97.3026C135.257 97.7848 135.428 98.1766 135.769 98.4779C136.131 98.7592 136.613 98.9903 137.216 99.1711C137.839 99.3318 138.542 99.4926 139.326 99.6533C140.129 99.8141 140.903 99.9949 141.646 100.196C142.39 100.397 143.053 100.668 143.635 101.01C144.238 101.331 144.71 101.773 145.052 102.336C145.413 102.878 145.594 103.571 145.594 104.415C145.594 105.44 145.313 106.314 144.75 107.037C144.208 107.74 143.434 108.273 142.43 108.634C141.425 108.996 140.24 109.177 138.873 109.177ZM161.816 109.177C160.731 109.177 159.767 109.066 158.923 108.845C158.079 108.624 157.356 108.313 156.753 107.911C156.17 107.489 155.718 106.987 155.397 106.404C155.075 105.822 154.884 105.189 154.824 104.506L157.476 103.632C157.476 104.214 157.657 104.737 158.019 105.199C158.38 105.661 158.893 106.023 159.556 106.284C160.239 106.525 161.053 106.645 161.997 106.645C163.102 106.645 163.956 106.465 164.559 106.103C165.161 105.741 165.463 105.239 165.463 104.596C165.463 104.114 165.292 103.732 164.95 103.451C164.629 103.169 164.157 102.938 163.534 102.758C162.931 102.577 162.218 102.406 161.394 102.245C160.651 102.084 159.907 101.904 159.164 101.703C158.441 101.482 157.768 101.2 157.145 100.859C156.542 100.517 156.05 100.075 155.668 99.5328C155.306 98.9702 155.125 98.267 155.125 97.4231C155.125 96.4587 155.377 95.6349 155.879 94.9518C156.381 94.2486 157.104 93.7061 158.049 93.3243C159.013 92.9225 160.158 92.7216 161.485 92.7216C162.77 92.7216 163.875 92.9124 164.8 93.2942C165.744 93.6759 166.498 94.2084 167.06 94.8915C167.623 95.5746 167.964 96.3783 168.085 97.3026L165.312 98.1163C165.272 97.4934 165.081 96.971 164.739 96.5491C164.418 96.1272 163.976 95.8157 163.413 95.6148C162.851 95.3938 162.188 95.2833 161.424 95.2833C160.42 95.2833 159.626 95.4641 159.043 95.8258C158.481 96.1874 158.199 96.6797 158.199 97.3026C158.199 97.7848 158.37 98.1766 158.712 98.4779C159.073 98.7592 159.556 98.9903 160.158 99.1711C160.781 99.3318 161.485 99.4926 162.268 99.6533C163.072 99.8141 163.845 99.9949 164.589 100.196C165.332 100.397 165.995 100.668 166.578 101.01C167.181 101.331 167.653 101.773 167.994 102.336C168.356 102.878 168.537 103.571 168.537 104.415C168.537 105.44 168.256 106.314 167.693 107.037C167.15 107.74 166.377 108.273 165.372 108.634C164.368 108.996 163.182 109.177 161.816 109.177ZM176.86 109.117C175.313 109.117 174.157 108.695 173.394 107.851C172.65 107.007 172.279 105.711 172.279 103.963V95.7956H169.958L170.018 93.1134H171.525C172.048 93.1134 172.439 93.033 172.701 92.8723C172.962 92.6914 173.123 92.38 173.183 91.938L173.484 89.6173H175.443V93.1134H179.753V95.8559H175.443V103.873C175.443 104.656 175.624 105.219 175.986 105.56C176.347 105.902 176.88 106.073 177.583 106.073C177.965 106.073 178.346 106.033 178.728 105.952C179.13 105.852 179.512 105.671 179.873 105.41V108.574C179.271 108.775 178.718 108.916 178.216 108.996C177.714 109.076 177.262 109.117 176.86 109.117ZM186.44 109.177C185.576 109.177 184.803 109.016 184.119 108.695C183.436 108.353 182.894 107.851 182.492 107.188C182.11 106.525 181.919 105.701 181.919 104.717C181.919 103.933 182.06 103.26 182.341 102.697C182.643 102.115 183.085 101.632 183.667 101.251C184.27 100.849 185.034 100.527 185.958 100.286C186.882 100.025 187.977 99.804 189.243 99.6232C189.946 99.5227 190.519 99.4223 190.961 99.3218C191.423 99.2213 191.754 99.0606 191.955 98.8396C192.176 98.6186 192.287 98.2871 192.287 97.845C192.287 97.1619 192.046 96.5792 191.564 96.097C191.101 95.5947 190.348 95.3436 189.303 95.3436C188.72 95.3436 188.138 95.444 187.555 95.645C186.993 95.8459 186.5 96.1774 186.078 96.6395C185.677 97.0815 185.405 97.6843 185.265 98.4478L182.311 97.5135C182.492 96.75 182.783 96.0769 183.185 95.4943C183.587 94.8915 184.089 94.3892 184.692 93.9874C185.295 93.5654 185.988 93.254 186.772 93.0531C187.575 92.8321 188.449 92.7216 189.394 92.7216C190.78 92.7216 191.925 92.9526 192.829 93.4147C193.733 93.8769 194.407 94.5901 194.849 95.5545C195.311 96.4989 195.542 97.7144 195.542 99.2013V102.396C195.542 103.059 195.552 103.762 195.572 104.506C195.612 105.229 195.652 105.962 195.692 106.706C195.753 107.429 195.823 108.122 195.903 108.785H192.92C192.859 108.182 192.799 107.56 192.739 106.917C192.699 106.274 192.659 105.621 192.618 104.958H192.166C191.885 105.721 191.483 106.424 190.961 107.067C190.458 107.71 189.826 108.223 189.062 108.604C188.319 108.986 187.445 109.177 186.44 109.177ZM187.585 106.645C188.007 106.645 188.429 106.575 188.851 106.434C189.293 106.294 189.725 106.083 190.147 105.801C190.589 105.5 190.991 105.118 191.353 104.656C191.734 104.194 192.066 103.642 192.347 102.999L192.317 100.166L193.101 100.316C192.759 100.618 192.327 100.849 191.805 101.01C191.302 101.17 190.75 101.301 190.147 101.401C189.544 101.482 188.941 101.582 188.339 101.703C187.756 101.803 187.214 101.954 186.711 102.155C186.229 102.336 185.837 102.597 185.536 102.938C185.255 103.28 185.114 103.752 185.114 104.355C185.114 105.098 185.345 105.671 185.807 106.073C186.269 106.454 186.862 106.645 187.585 106.645ZM205.172 114.089C204.368 114.089 203.554 113.999 202.73 113.818C201.927 113.657 201.183 113.396 200.5 113.035C199.817 112.693 199.244 112.241 198.782 111.678L200.108 109.087C200.631 109.77 201.334 110.282 202.218 110.624C203.102 110.985 204.036 111.166 205.021 111.166C206.146 111.166 207.07 110.925 207.794 110.443C208.537 109.981 209.1 109.257 209.481 108.273C209.863 107.288 210.064 106.053 210.084 104.566L210.355 101.552H209.783C209.562 102.979 209.21 104.124 208.728 104.988C208.266 105.852 207.693 106.475 207.01 106.856C206.327 107.238 205.523 107.429 204.599 107.429C203.454 107.429 202.489 107.148 201.706 106.585C200.942 106.002 200.359 105.148 199.958 104.023C199.576 102.878 199.385 101.482 199.385 99.8342V93.1134H202.64V99.1108C202.64 101.02 202.891 102.416 203.393 103.3C203.916 104.184 204.689 104.626 205.714 104.626C206.277 104.626 206.779 104.485 207.221 104.204C207.663 103.923 208.045 103.511 208.366 102.969C208.708 102.406 208.969 101.713 209.15 100.889C209.351 100.065 209.471 99.1108 209.511 98.0259V93.1134H212.796V104.717C212.796 105.962 212.696 107.087 212.495 108.092C212.294 109.076 211.983 109.94 211.561 110.684C211.159 111.447 210.657 112.08 210.054 112.583C209.451 113.105 208.738 113.487 207.914 113.728C207.11 113.969 206.196 114.089 205.172 114.089ZM227.682 109.177C226.818 109.177 226.045 109.016 225.361 108.695C224.678 108.353 224.136 107.851 223.734 107.188C223.352 106.525 223.161 105.701 223.161 104.717C223.161 103.933 223.302 103.26 223.583 102.697C223.885 102.115 224.327 101.632 224.909 101.251C225.512 100.849 226.276 100.527 227.2 100.286C228.124 100.025 229.219 99.804 230.485 99.6232C231.188 99.5227 231.761 99.4223 232.203 99.3218C232.665 99.2213 232.996 99.0606 233.197 98.8396C233.418 98.6186 233.529 98.2871 233.529 97.845C233.529 97.1619 233.288 96.5792 232.806 96.097C232.343 95.5947 231.59 95.3436 230.545 95.3436C229.963 95.3436 229.38 95.444 228.797 95.645C228.235 95.8459 227.742 96.1774 227.32 96.6395C226.919 97.0815 226.647 97.6843 226.507 98.4478L223.553 97.5135C223.734 96.75 224.025 96.0769 224.427 95.4943C224.829 94.8915 225.331 94.3892 225.934 93.9874C226.537 93.5654 227.23 93.254 228.014 93.0531C228.817 92.8321 229.691 92.7216 230.636 92.7216C232.022 92.7216 233.167 92.9526 234.071 93.4147C234.975 93.8769 235.649 94.5901 236.091 95.5545C236.553 96.4989 236.784 97.7144 236.784 99.2013V102.396C236.784 103.059 236.794 103.762 236.814 104.506C236.854 105.229 236.894 105.962 236.934 106.706C236.995 107.429 237.065 108.122 237.145 108.785H234.162C234.101 108.182 234.041 107.56 233.981 106.917C233.941 106.274 233.901 105.621 233.86 104.958H233.408C233.127 105.721 232.725 106.424 232.203 107.067C231.7 107.71 231.068 108.223 230.304 108.604C229.561 108.986 228.687 109.177 227.682 109.177ZM228.827 106.645C229.249 106.645 229.671 106.575 230.093 106.434C230.535 106.294 230.967 106.083 231.389 105.801C231.831 105.5 232.233 105.118 232.595 104.656C232.976 104.194 233.308 103.642 233.589 102.999L233.559 100.166L234.343 100.316C234.001 100.618 233.569 100.849 233.047 101.01C232.544 101.17 231.992 101.301 231.389 101.401C230.786 101.482 230.184 101.582 229.581 101.703C228.998 101.803 228.456 101.954 227.953 102.155C227.471 102.336 227.079 102.597 226.778 102.938C226.497 103.28 226.356 103.752 226.356 104.355C226.356 105.098 226.587 105.671 227.049 106.073C227.511 106.454 228.104 106.645 228.827 106.645ZM243.129 108.785L239.061 93.1134H242.436L245.239 106.073H245.751L248.825 93.1134H252.924L256.058 106.073H256.541L259.313 93.1134H262.659L258.56 108.785H254.009L251.025 95.8559H250.634L247.68 108.785H243.129ZM268.755 109.177C267.891 109.177 267.117 109.016 266.434 108.695C265.751 108.353 265.208 107.851 264.807 107.188C264.425 106.525 264.234 105.701 264.234 104.717C264.234 103.933 264.375 103.26 264.656 102.697C264.957 102.115 265.399 101.632 265.982 101.251C266.585 100.849 267.348 100.527 268.272 100.286C269.197 100.025 270.292 99.804 271.557 99.6232C272.261 99.5227 272.833 99.4223 273.275 99.3218C273.737 99.2213 274.069 99.0606 274.27 98.8396C274.491 98.6186 274.601 98.2871 274.601 97.845C274.601 97.1619 274.36 96.5792 273.878 96.097C273.416 95.5947 272.663 95.3436 271.618 95.3436C271.035 95.3436 270.452 95.444 269.87 95.645C269.307 95.8459 268.815 96.1774 268.393 96.6395C267.991 97.0815 267.72 97.6843 267.579 98.4478L264.626 97.5135C264.807 96.75 265.098 96.0769 265.5 95.4943C265.902 94.8915 266.404 94.3892 267.007 93.9874C267.609 93.5654 268.303 93.254 269.086 93.0531C269.89 92.8321 270.764 92.7216 271.708 92.7216C273.095 92.7216 274.24 92.9526 275.144 93.4147C276.048 93.8769 276.721 94.5901 277.163 95.5545C277.625 96.4989 277.856 97.7144 277.856 99.2013V102.396C277.856 103.059 277.866 103.762 277.886 104.506C277.927 105.229 277.967 105.962 278.007 106.706C278.067 107.429 278.138 108.122 278.218 108.785H275.234C275.174 108.182 275.114 107.56 275.053 106.917C275.013 106.274 274.973 105.621 274.933 104.958H274.481C274.2 105.721 273.798 106.424 273.275 107.067C272.773 107.71 272.14 108.223 271.377 108.604C270.633 108.986 269.759 109.177 268.755 109.177ZM269.9 106.645C270.322 106.645 270.744 106.575 271.166 106.434C271.608 106.294 272.04 106.083 272.462 105.801C272.904 105.5 273.305 105.118 273.667 104.656C274.049 104.194 274.38 103.642 274.662 102.999L274.632 100.166L275.415 100.316C275.074 100.618 274.642 100.849 274.119 101.01C273.617 101.17 273.064 101.301 272.462 101.401C271.859 101.482 271.256 101.582 270.653 101.703C270.071 101.803 269.528 101.954 269.026 102.155C268.544 102.336 268.152 102.597 267.85 102.938C267.569 103.28 267.429 103.752 267.429 104.355C267.429 105.098 267.66 105.671 268.122 106.073C268.584 106.454 269.177 106.645 269.9 106.645ZM287.486 114.089C286.682 114.089 285.869 113.999 285.045 113.818C284.241 113.657 283.498 113.396 282.815 113.035C282.132 112.693 281.559 112.241 281.097 111.678L282.423 109.087C282.945 109.77 283.649 110.282 284.533 110.624C285.417 110.985 286.351 111.166 287.335 111.166C288.461 111.166 289.385 110.925 290.108 110.443C290.852 109.981 291.414 109.257 291.796 108.273C292.178 107.288 292.379 106.053 292.399 104.566L292.67 101.552H292.097C291.876 102.979 291.525 104.124 291.042 104.988C290.58 105.852 290.008 106.475 289.325 106.856C288.641 107.238 287.838 107.429 286.914 107.429C285.768 107.429 284.804 107.148 284.02 106.585C283.257 106.002 282.674 105.148 282.272 104.023C281.89 102.878 281.7 101.482 281.7 99.8342V93.1134H284.955V99.1108C284.955 101.02 285.206 102.416 285.708 103.3C286.23 104.184 287.004 104.626 288.029 104.626C288.591 104.626 289.093 104.485 289.536 104.204C289.978 103.923 290.359 103.511 290.681 102.969C291.022 102.406 291.284 101.713 291.464 100.889C291.665 100.065 291.786 99.1108 291.826 98.0259V93.1134H295.111V104.717C295.111 105.962 295.011 107.087 294.81 108.092C294.609 109.076 294.297 109.94 293.875 110.684C293.474 111.447 292.971 112.08 292.368 112.583C291.766 113.105 291.052 113.487 290.229 113.728C289.425 113.969 288.511 114.089 287.486 114.089ZM299.957 109.147C299.214 109.147 298.651 108.986 298.269 108.665C297.908 108.343 297.727 107.841 297.727 107.158C297.727 106.454 297.918 105.942 298.3 105.621C298.681 105.299 299.234 105.138 299.957 105.138C300.721 105.138 301.293 105.299 301.675 105.621C302.057 105.942 302.248 106.454 302.248 107.158C302.248 108.484 301.484 109.147 299.957 109.147Z" fill="#7F7F81"/>
<rect y="146.924" width="382" height="134.868" rx="31.645" fill="#F3F3F3"/>
<path d="M22.1417 193.006L29.0735 173.115H33.8654L40.7972 193.006H37.2409L31.6653 175.797H31.2735L25.698 193.006H22.1417ZM25.6076 188.726V186.315H37.7532V188.726H25.6076ZM43.4778 197.949V185.23V177.334H46.3108L46.2204 181.463L46.7026 181.493C46.9236 180.549 47.2551 179.745 47.6971 179.082C48.1392 178.399 48.7017 177.877 49.3849 177.515C50.0881 177.133 50.9219 176.942 51.8863 176.942C53.2928 176.942 54.4782 177.294 55.4426 177.997C56.4271 178.7 57.1605 179.675 57.6427 180.92C58.145 182.166 58.3961 183.593 58.3961 185.2C58.3961 186.767 58.155 188.174 57.6728 189.419C57.2107 190.645 56.5075 191.62 55.5632 192.343C54.6188 193.046 53.4635 193.398 52.0973 193.398C51.0324 193.398 50.1484 193.187 49.4451 192.765C48.7419 192.323 48.1693 191.75 47.7273 191.047C47.2852 190.324 46.9437 189.53 46.7026 188.666H46.1601C46.2806 189.208 46.3811 189.771 46.4615 190.354C46.5418 190.916 46.6122 191.479 46.6724 192.041C46.7327 192.604 46.7628 193.136 46.7628 193.639V197.949H43.4778ZM51.1329 190.655C51.9566 190.655 52.6498 190.424 53.2124 189.962C53.7951 189.48 54.2371 188.827 54.5385 188.003C54.8399 187.179 54.9905 186.235 54.9905 185.17C54.9905 184.065 54.8298 183.111 54.5083 182.307C54.207 181.503 53.7649 180.88 53.1823 180.438C52.5996 179.976 51.9064 179.745 51.1027 179.745C50.3995 179.745 49.7767 179.906 49.2342 180.227C48.6917 180.549 48.2296 180.971 47.8478 181.493C47.4862 181.995 47.2049 182.558 47.004 183.181C46.8231 183.784 46.7327 184.376 46.7327 184.959V185.411C46.7327 185.813 46.793 186.245 46.9135 186.707C47.0341 187.169 47.2049 187.631 47.4259 188.093C47.667 188.555 47.9583 188.987 48.2999 189.389C48.6615 189.771 49.0734 190.082 49.5356 190.324C50.0178 190.545 50.5502 190.655 51.1329 190.655ZM61.8067 197.949V185.23V177.334H64.6397L64.5493 181.463L65.0315 181.493C65.2525 180.549 65.584 179.745 66.026 179.082C66.468 178.399 67.0306 177.877 67.7137 177.515C68.417 177.133 69.2508 176.942 70.2152 176.942C71.6217 176.942 72.8071 177.294 73.7715 177.997C74.756 178.7 75.4894 179.675 75.9716 180.92C76.4739 182.166 76.725 183.593 76.725 185.2C76.725 186.767 76.4839 188.174 76.0017 189.419C75.5396 190.645 74.8364 191.62 73.8921 192.343C72.9477 193.046 71.7924 193.398 70.4262 193.398C69.3613 193.398 68.4772 193.187 67.774 192.765C67.0708 192.323 66.4982 191.75 66.0562 191.047C65.6141 190.324 65.2726 189.53 65.0315 188.666H64.489C64.6095 189.208 64.71 189.771 64.7904 190.354C64.8707 190.916 64.941 191.479 65.0013 192.041C65.0616 192.604 65.0917 193.136 65.0917 193.639V197.949H61.8067ZM69.4618 190.655C70.2855 190.655 70.9787 190.424 71.5413 189.962C72.124 189.48 72.566 188.827 72.8674 188.003C73.1687 187.179 73.3194 186.235 73.3194 185.17C73.3194 184.065 73.1587 183.111 72.8372 182.307C72.5358 181.503 72.0938 180.88 71.5111 180.438C70.9285 179.976 70.2353 179.745 69.4316 179.745C68.7284 179.745 68.1055 179.906 67.5631 180.227C67.0206 180.549 66.5585 180.971 66.1767 181.493C65.8151 181.995 65.5338 182.558 65.3328 183.181C65.152 183.784 65.0616 184.376 65.0616 184.959V185.411C65.0616 185.813 65.1219 186.245 65.2424 186.707C65.363 187.169 65.5338 187.631 65.7548 188.093C65.9959 188.555 66.2872 188.987 66.6288 189.389C66.9904 189.771 67.4023 190.082 67.8644 190.324C68.3466 190.545 68.8791 190.655 69.4618 190.655ZM87.0666 193.398C85.8209 193.398 84.7159 193.217 83.7514 192.855C82.787 192.473 81.9733 191.941 81.3103 191.258C80.6472 190.555 80.1449 189.721 79.8033 188.756C79.4618 187.772 79.291 186.667 79.291 185.441C79.291 184.216 79.4618 183.09 79.8033 182.066C80.1449 181.021 80.6271 180.117 81.25 179.353C81.8929 178.59 82.6765 177.997 83.6007 177.575C84.5451 177.153 85.61 176.942 86.7954 176.942C87.9004 176.942 88.885 177.123 89.7489 177.485C90.633 177.846 91.3764 178.399 91.9791 179.142C92.5819 179.866 93.034 180.78 93.3353 181.885C93.6367 182.97 93.7472 184.246 93.6669 185.712L81.4007 185.803V183.753L91.738 183.663L90.5928 184.929C90.7133 183.723 90.6129 182.729 90.2914 181.945C89.9699 181.162 89.5078 180.579 88.905 180.197C88.3023 179.815 87.6091 179.625 86.8255 179.625C85.9415 179.625 85.1679 179.856 84.5049 180.318C83.8619 180.76 83.3596 181.413 82.998 182.277C82.6363 183.141 82.4555 184.175 82.4555 185.381C82.4555 187.189 82.8573 188.555 83.661 189.48C84.4647 190.384 85.61 190.836 87.0968 190.836C87.7196 190.836 88.2521 190.766 88.6941 190.625C89.1361 190.464 89.5078 190.263 89.8092 190.022C90.1106 189.761 90.3517 189.46 90.5325 189.118C90.7334 188.756 90.8942 188.385 91.0147 188.003L93.8778 188.666C93.697 189.409 93.4157 190.072 93.034 190.655C92.6723 191.218 92.2102 191.71 91.6476 192.132C91.085 192.534 90.422 192.845 89.6585 193.066C88.9151 193.287 88.0511 193.398 87.0666 193.398ZM100.757 193.398C99.8926 193.398 99.1191 193.237 98.436 192.915C97.7528 192.574 97.2104 192.072 96.8085 191.409C96.4268 190.746 96.2359 189.922 96.2359 188.937C96.2359 188.154 96.3765 187.481 96.6578 186.918C96.9592 186.335 97.4012 185.853 97.9839 185.471C98.5867 185.07 99.3502 184.748 100.274 184.507C101.199 184.246 102.294 184.025 103.559 183.844C104.263 183.743 104.835 183.643 105.277 183.543C105.739 183.442 106.071 183.281 106.272 183.06C106.493 182.839 106.603 182.508 106.603 182.066C106.603 181.383 106.362 180.8 105.88 180.318C105.418 179.815 104.665 179.564 103.62 179.564C103.037 179.564 102.454 179.665 101.872 179.866C101.309 180.067 100.817 180.398 100.395 180.86C99.9931 181.302 99.7219 181.905 99.5812 182.669L96.6277 181.734C96.8085 180.971 97.0999 180.298 97.5017 179.715C97.9035 179.112 98.4058 178.61 99.0086 178.208C99.6114 177.786 100.305 177.475 101.088 177.274C101.892 177.053 102.766 176.942 103.71 176.942C105.096 176.942 106.242 177.173 107.146 177.635C108.05 178.098 108.723 178.811 109.165 179.775C109.627 180.72 109.858 181.935 109.858 183.422V186.617C109.858 187.28 109.868 187.983 109.888 188.726C109.929 189.45 109.969 190.183 110.009 190.926C110.069 191.65 110.14 192.343 110.22 193.006H107.236C107.176 192.403 107.116 191.78 107.055 191.137C107.015 190.494 106.975 189.841 106.935 189.178H106.483C106.202 189.942 105.8 190.645 105.277 191.288C104.775 191.931 104.142 192.443 103.379 192.825C102.635 193.207 101.761 193.398 100.757 193.398ZM101.902 190.866C102.324 190.866 102.746 190.796 103.168 190.655C103.61 190.514 104.042 190.303 104.464 190.022C104.906 189.721 105.307 189.339 105.669 188.877C106.051 188.415 106.382 187.862 106.664 187.219L106.634 184.386L107.417 184.537C107.076 184.838 106.644 185.07 106.121 185.23C105.619 185.391 105.066 185.522 104.464 185.622C103.861 185.702 103.258 185.803 102.655 185.923C102.073 186.024 101.53 186.175 101.028 186.375C100.546 186.556 100.154 186.818 99.8525 187.159C99.5712 187.501 99.4305 187.973 99.4305 188.576C99.4305 189.319 99.6616 189.892 100.124 190.293C100.586 190.675 101.179 190.866 101.902 190.866ZM113.938 193.006V184.838V177.334H116.771L116.621 182.759H117.133C117.314 181.533 117.595 180.489 117.977 179.625C118.359 178.761 118.881 178.108 119.544 177.666C120.207 177.203 121.031 176.972 122.015 176.972C122.216 176.972 122.437 176.982 122.679 177.003C122.92 177.023 123.191 177.083 123.492 177.183L123.342 180.619C123.04 180.499 122.729 180.418 122.407 180.378C122.086 180.318 121.794 180.288 121.533 180.288C120.73 180.288 120.046 180.519 119.484 180.981C118.921 181.423 118.449 182.046 118.067 182.849C117.706 183.633 117.424 184.547 117.224 185.592V193.006H113.938ZM131.936 193.398C130.851 193.398 129.887 193.287 129.043 193.066C128.199 192.845 127.476 192.534 126.873 192.132C126.29 191.71 125.838 191.208 125.517 190.625C125.195 190.042 125.005 189.409 124.944 188.726L127.596 187.852C127.596 188.435 127.777 188.957 128.139 189.419C128.501 189.882 129.013 190.243 129.676 190.504C130.359 190.746 131.173 190.866 132.117 190.866C133.222 190.866 134.076 190.685 134.679 190.324C135.282 189.962 135.583 189.46 135.583 188.817C135.583 188.334 135.412 187.953 135.071 187.671C134.749 187.39 134.277 187.159 133.654 186.978C133.051 186.797 132.338 186.627 131.514 186.466C130.771 186.305 130.028 186.124 129.284 185.923C128.561 185.702 127.888 185.421 127.265 185.08C126.662 184.738 126.17 184.296 125.788 183.753C125.426 183.191 125.246 182.488 125.246 181.644C125.246 180.679 125.497 179.856 125.999 179.172C126.501 178.469 127.225 177.927 128.169 177.545C129.133 177.143 130.279 176.942 131.605 176.942C132.891 176.942 133.996 177.133 134.92 177.515C135.864 177.897 136.618 178.429 137.18 179.112C137.743 179.795 138.084 180.599 138.205 181.523L135.432 182.337C135.392 181.714 135.201 181.192 134.86 180.77C134.538 180.348 134.096 180.036 133.534 179.836C132.971 179.615 132.308 179.504 131.545 179.504C130.54 179.504 129.746 179.685 129.164 180.046C128.601 180.408 128.32 180.9 128.32 181.523C128.32 182.005 128.491 182.397 128.832 182.699C129.194 182.98 129.676 183.211 130.279 183.392C130.902 183.553 131.605 183.713 132.388 183.874C133.192 184.035 133.966 184.216 134.709 184.417C135.452 184.617 136.115 184.889 136.698 185.23C137.301 185.552 137.773 185.994 138.115 186.556C138.476 187.099 138.657 187.792 138.657 188.636C138.657 189.661 138.376 190.535 137.813 191.258C137.271 191.961 136.497 192.494 135.493 192.855C134.488 193.217 133.303 193.398 131.936 193.398Z" fill="black"/>
<path d="M32.1169 256.101C30.6703 256.101 29.3844 255.87 28.2593 255.408C27.1542 254.925 26.2099 254.242 25.4263 253.358C24.6628 252.474 24.0801 251.399 23.6783 250.133C23.2965 248.868 23.1056 247.441 23.1056 245.854C23.1056 243.523 23.4974 241.594 24.281 240.067C25.0646 238.52 26.1395 237.365 27.5058 236.601C28.8721 235.818 30.4292 235.426 32.1772 235.426C33.5435 235.426 34.7791 235.657 35.8842 236.119C36.9892 236.561 37.9336 237.234 38.7172 238.138C39.5208 239.023 40.1337 240.118 40.5556 241.424C40.9775 242.709 41.1885 244.176 41.1885 245.824C41.1885 247.431 40.9876 248.878 40.5857 250.164C40.1839 251.429 39.5912 252.504 38.8076 253.388C38.024 254.272 37.0696 254.945 35.9445 255.408C34.8394 255.87 33.5636 256.101 32.1169 256.101ZM32.1772 253.358C33.3827 253.358 34.4074 253.067 35.2513 252.484C36.0952 251.902 36.7381 251.068 37.1801 249.983C37.6221 248.878 37.8432 247.532 37.8432 245.944C37.8432 244.317 37.6121 242.93 37.15 241.785C36.708 240.64 36.055 239.766 35.191 239.163C34.3471 238.54 33.3224 238.229 32.1169 238.229C30.9516 238.229 29.9369 238.53 29.073 239.133C28.2291 239.716 27.5761 240.57 27.114 241.695C26.672 242.82 26.451 244.206 26.451 245.854C26.451 247.059 26.5816 248.134 26.8428 249.079C27.104 250.003 27.4757 250.786 27.9579 251.429C28.4401 252.052 29.0328 252.534 29.736 252.876C30.4593 253.197 31.2731 253.358 32.1772 253.358ZM44.89 255.709V246.065V240.037H47.723L47.5422 244.92H48.0545C48.3358 243.714 48.7075 242.73 49.1697 241.966C49.6519 241.182 50.2546 240.6 50.9779 240.218C51.7213 239.836 52.5853 239.645 53.5698 239.645C55.3178 239.645 56.6439 240.268 57.548 241.514C58.4723 242.76 58.9344 244.658 58.9344 247.21V255.709H55.6192V247.542C55.6192 245.794 55.358 244.518 54.8356 243.714C54.3132 242.89 53.5296 242.478 52.4848 242.478C51.5807 242.478 50.8072 242.77 50.1642 243.352C49.5414 243.915 49.0591 244.658 48.7176 245.583C48.376 246.507 48.1851 247.511 48.145 248.596V255.709H44.89ZM62.9246 255.709V234.462H66.1494V255.709H62.9246ZM75.9134 261.013C75.1097 261.013 74.296 260.923 73.4722 260.742C72.6686 260.581 71.9252 260.32 71.242 259.958C70.5589 259.617 69.9863 259.165 69.5242 258.602L70.8502 256.01C71.3726 256.693 72.0758 257.206 72.9599 257.547C73.8439 257.909 74.7782 258.09 75.7627 258.09C76.8879 258.09 77.8121 257.849 78.5354 257.367C79.2788 256.904 79.8414 256.181 80.2232 255.197C80.6049 254.212 80.8058 252.976 80.8259 251.49L81.0972 248.476H80.5245C80.3035 249.902 79.9519 251.048 79.4697 251.912C79.0076 252.776 78.435 253.398 77.7518 253.78C77.0687 254.162 76.265 254.353 75.3408 254.353C74.1956 254.353 73.2311 254.071 72.4475 253.509C71.684 252.926 71.1014 252.072 70.6995 250.947C70.3178 249.802 70.1269 248.406 70.1269 246.758V240.037H73.3818V246.035C73.3818 247.943 73.633 249.34 74.1353 250.224C74.6577 251.108 75.4312 251.55 76.4559 251.55C77.0185 251.55 77.5208 251.409 77.9628 251.128C78.4048 250.847 78.7866 250.435 79.1081 249.892C79.4496 249.33 79.7108 248.637 79.8916 247.813C80.0926 246.989 80.2131 246.035 80.2533 244.95V240.037H83.5384V251.64C83.5384 252.886 83.4379 254.011 83.237 255.016C83.0361 256 82.7246 256.864 82.3027 257.608C81.9009 258.371 81.3985 259.004 80.7958 259.506C80.193 260.029 79.4798 260.411 78.656 260.652C77.8523 260.893 76.9381 261.013 75.9134 261.013ZM97.2787 255.709L93.2101 240.037H96.5855L99.3884 252.997H99.9007L102.975 240.037H107.074L110.208 252.997H110.69L113.463 240.037H116.808L112.709 255.709H108.159L105.175 242.78H104.783L101.83 255.709H97.2787ZM119.435 255.709V246.095V234.462H122.75V239.344C122.75 239.766 122.74 240.208 122.72 240.67C122.7 241.112 122.659 241.564 122.599 242.026C122.539 242.488 122.479 242.951 122.418 243.413C122.358 243.875 122.288 244.347 122.207 244.829H122.75C123.051 243.704 123.423 242.76 123.865 241.996C124.327 241.213 124.9 240.63 125.583 240.248C126.286 239.846 127.13 239.645 128.114 239.645C129.923 239.645 131.269 240.278 132.153 241.544C133.037 242.79 133.479 244.668 133.479 247.18V255.709H130.164V247.602C130.164 245.834 129.893 244.538 129.35 243.714C128.828 242.89 128.034 242.478 126.969 242.478C126.085 242.478 125.342 242.74 124.739 243.262C124.156 243.784 123.694 244.488 123.353 245.372C123.011 246.256 122.79 247.26 122.69 248.385V255.709H119.435ZM144.371 256.101C143.125 256.101 142.02 255.92 141.056 255.558C140.091 255.177 139.278 254.644 138.614 253.961C137.951 253.258 137.449 252.424 137.108 251.46C136.766 250.475 136.595 249.37 136.595 248.144C136.595 246.919 136.766 245.794 137.108 244.769C137.449 243.724 137.931 242.82 138.554 242.056C139.197 241.293 139.981 240.7 140.905 240.278C141.849 239.856 142.914 239.645 144.1 239.645C145.205 239.645 146.189 239.826 147.053 240.188C147.937 240.55 148.681 241.102 149.283 241.845C149.886 242.569 150.338 243.483 150.64 244.588C150.941 245.673 151.051 246.949 150.971 248.416L138.705 248.506V246.457L149.042 246.366L147.897 247.632C148.018 246.426 147.917 245.432 147.596 244.648C147.274 243.865 146.812 243.282 146.209 242.9C145.607 242.519 144.913 242.328 144.13 242.328C143.246 242.328 142.472 242.559 141.809 243.021C141.166 243.463 140.664 244.116 140.302 244.98C139.941 245.844 139.76 246.879 139.76 248.084C139.76 249.892 140.162 251.259 140.965 252.183C141.769 253.087 142.914 253.539 144.401 253.539C145.024 253.539 145.556 253.469 145.998 253.328C146.44 253.167 146.812 252.966 147.113 252.725C147.415 252.464 147.656 252.163 147.837 251.821C148.038 251.46 148.198 251.088 148.319 250.706L151.182 251.369C151.001 252.113 150.72 252.776 150.338 253.358C149.977 253.921 149.514 254.413 148.952 254.835C148.389 255.237 147.726 255.548 146.963 255.769C146.219 255.99 145.355 256.101 144.371 256.101ZM154.356 255.709V246.065V240.037H157.189L157.008 244.92H157.52C157.802 243.714 158.173 242.73 158.636 241.966C159.118 241.182 159.721 240.6 160.444 240.218C161.187 239.836 162.051 239.645 163.036 239.645C164.784 239.645 166.11 240.268 167.014 241.514C167.938 242.76 168.4 244.658 168.4 247.21V255.709H165.085V247.542C165.085 245.794 164.824 244.518 164.302 243.714C163.779 242.89 162.996 242.478 161.951 242.478C161.047 242.478 160.273 242.77 159.63 243.352C159.007 243.915 158.525 244.658 158.184 245.583C157.842 246.507 157.651 247.511 157.611 248.596V255.709H154.356ZM179.506 255.709V246.065V240.037H182.339L182.158 244.92H182.67C182.952 243.714 183.323 242.73 183.786 241.966C184.268 241.182 184.871 240.6 185.594 240.218C186.337 239.836 187.201 239.645 188.186 239.645C189.934 239.645 191.26 240.268 192.164 241.514C193.088 242.76 193.55 244.658 193.55 247.21V255.709H190.235V247.542C190.235 245.794 189.974 244.518 189.452 243.714C188.929 242.89 188.146 242.478 187.101 242.478C186.197 242.478 185.423 242.77 184.78 243.352C184.157 243.915 183.675 244.658 183.333 245.583C182.992 246.507 182.801 247.511 182.761 248.596V255.709H179.506ZM204.442 256.101C203.196 256.101 202.091 255.92 201.127 255.558C200.163 255.177 199.349 254.644 198.686 253.961C198.023 253.258 197.52 252.424 197.179 251.46C196.837 250.475 196.667 249.37 196.667 248.144C196.667 246.919 196.837 245.794 197.179 244.769C197.52 243.724 198.003 242.82 198.626 242.056C199.268 241.293 200.052 240.7 200.976 240.278C201.921 239.856 202.985 239.645 204.171 239.645C205.276 239.645 206.26 239.826 207.124 240.188C208.008 240.55 208.752 241.102 209.355 241.845C209.957 242.569 210.409 243.483 210.711 244.588C211.012 245.673 211.123 246.949 211.042 248.416L198.776 248.506V246.457L209.114 246.366L207.968 247.632C208.089 246.426 207.988 245.432 207.667 244.648C207.345 243.865 206.883 243.282 206.281 242.9C205.678 242.519 204.985 242.328 204.201 242.328C203.317 242.328 202.543 242.559 201.88 243.021C201.237 243.463 200.735 244.116 200.374 244.98C200.012 245.844 199.831 246.879 199.831 248.084C199.831 249.892 200.233 251.259 201.037 252.183C201.84 253.087 202.985 253.539 204.472 253.539C205.095 253.539 205.628 253.469 206.07 253.328C206.512 253.167 206.883 252.966 207.185 252.725C207.486 252.464 207.727 252.163 207.908 251.821C208.109 251.46 208.27 251.088 208.39 250.706L211.253 251.369C211.073 252.113 210.791 252.776 210.409 253.358C210.048 253.921 209.586 254.413 209.023 254.835C208.461 255.237 207.798 255.548 207.034 255.769C206.291 255.99 205.427 256.101 204.442 256.101ZM221.417 256.101C220.171 256.101 219.066 255.92 218.102 255.558C217.138 255.177 216.324 254.644 215.661 253.961C214.998 253.258 214.495 252.424 214.154 251.46C213.812 250.475 213.642 249.37 213.642 248.144C213.642 246.919 213.812 245.794 214.154 244.769C214.495 243.724 214.978 242.82 215.601 242.056C216.243 241.293 217.027 240.7 217.951 240.278C218.896 239.856 219.961 239.645 221.146 239.645C222.251 239.645 223.236 239.826 224.099 240.188C224.984 240.55 225.727 241.102 226.33 241.845C226.932 242.569 227.385 243.483 227.686 244.588C227.987 245.673 228.098 246.949 228.017 248.416L215.751 248.506V246.457L226.089 246.366L224.943 247.632C225.064 246.426 224.963 245.432 224.642 244.648C224.32 243.865 223.858 243.282 223.256 242.9C222.653 242.519 221.96 242.328 221.176 242.328C220.292 242.328 219.518 242.559 218.855 243.021C218.212 243.463 217.71 244.116 217.349 244.98C216.987 245.844 216.806 246.879 216.806 248.084C216.806 249.892 217.208 251.259 218.012 252.183C218.815 253.087 219.961 253.539 221.447 253.539C222.07 253.539 222.603 253.469 223.045 253.328C223.487 253.167 223.858 252.966 224.16 252.725C224.461 252.464 224.702 252.163 224.883 251.821C225.084 251.46 225.245 251.088 225.365 250.706L228.228 251.369C228.048 252.113 227.766 252.776 227.385 253.358C227.023 253.921 226.561 254.413 225.998 254.835C225.436 255.237 224.773 255.548 224.009 255.769C223.266 255.99 222.402 256.101 221.417 256.101ZM237.125 256.101C235.799 256.101 234.654 255.759 233.689 255.076C232.725 254.373 231.991 253.408 231.489 252.183C230.987 250.937 230.736 249.501 230.736 247.873C230.736 246.286 230.967 244.879 231.429 243.654C231.911 242.408 232.614 241.434 233.539 240.73C234.483 240.027 235.638 239.676 237.004 239.676C238.089 239.676 238.984 239.897 239.687 240.339C240.39 240.761 240.953 241.343 241.374 242.087C241.816 242.83 242.148 243.654 242.369 244.558H242.972C242.871 243.975 242.771 243.372 242.67 242.75C242.57 242.107 242.49 241.494 242.429 240.911C242.369 240.308 242.339 239.776 242.339 239.314V234.462H245.654V247.994V255.709H242.791L242.911 251.369H242.369C242.128 252.354 241.786 253.197 241.344 253.901C240.902 254.604 240.33 255.146 239.626 255.528C238.943 255.91 238.11 256.101 237.125 256.101ZM238.029 253.328C238.732 253.328 239.355 253.167 239.898 252.846C240.44 252.524 240.892 252.102 241.254 251.58C241.616 251.058 241.887 250.495 242.068 249.892C242.269 249.269 242.369 248.687 242.369 248.144V247.722C242.369 247.321 242.309 246.889 242.188 246.426C242.088 245.944 241.917 245.472 241.676 245.01C241.455 244.528 241.174 244.096 240.832 243.714C240.49 243.332 240.079 243.031 239.596 242.81C239.134 242.569 238.612 242.448 238.029 242.448C237.185 242.448 236.472 242.689 235.889 243.172C235.327 243.634 234.895 244.277 234.593 245.1C234.292 245.924 234.141 246.868 234.141 247.933C234.141 249.018 234.292 249.973 234.593 250.796C234.915 251.6 235.367 252.223 235.95 252.665C236.532 253.107 237.225 253.328 238.029 253.328ZM256.751 256.101C255.505 256.101 254.4 255.92 253.435 255.558C252.471 255.177 251.657 254.644 250.994 253.961C250.331 253.258 249.829 252.424 249.487 251.46C249.146 250.475 248.975 249.37 248.975 248.144C248.975 246.919 249.146 245.794 249.487 244.769C249.829 243.724 250.311 242.82 250.934 242.056C251.577 241.293 252.36 240.7 253.285 240.278C254.229 239.856 255.294 239.645 256.479 239.645C257.584 239.645 258.569 239.826 259.433 240.188C260.317 240.55 261.06 241.102 261.663 241.845C262.266 242.569 262.718 243.483 263.019 244.588C263.321 245.673 263.431 246.949 263.351 248.416L251.085 248.506V246.457L261.422 246.366L260.277 247.632C260.397 246.426 260.297 245.432 259.975 244.648C259.654 243.865 259.192 243.282 258.589 242.9C257.986 242.519 257.293 242.328 256.509 242.328C255.625 242.328 254.852 242.559 254.189 243.021C253.546 243.463 253.044 244.116 252.682 244.98C252.32 245.844 252.139 246.879 252.139 248.084C252.139 249.892 252.541 251.259 253.345 252.183C254.149 253.087 255.294 253.539 256.781 253.539C257.404 253.539 257.936 253.469 258.378 253.328C258.82 253.167 259.192 252.966 259.493 252.725C259.794 252.464 260.036 252.163 260.216 251.821C260.417 251.46 260.578 251.088 260.699 250.706L263.562 251.369C263.381 252.113 263.1 252.776 262.718 253.358C262.356 253.921 261.894 254.413 261.332 254.835C260.769 255.237 260.106 255.548 259.342 255.769C258.599 255.99 257.735 256.101 256.751 256.101ZM272.458 256.101C271.132 256.101 269.987 255.759 269.023 255.076C268.058 254.373 267.325 253.408 266.823 252.183C266.32 250.937 266.069 249.501 266.069 247.873C266.069 246.286 266.3 244.879 266.762 243.654C267.244 242.408 267.948 241.434 268.872 240.73C269.816 240.027 270.972 239.676 272.338 239.676C273.423 239.676 274.317 239.897 275.02 240.339C275.723 240.761 276.286 241.343 276.708 242.087C277.15 242.83 277.481 243.654 277.702 244.558H278.305C278.205 243.975 278.104 243.372 278.004 242.75C277.903 242.107 277.823 241.494 277.763 240.911C277.702 240.308 277.672 239.776 277.672 239.314V234.462H280.987V247.994V255.709H278.124L278.245 251.369H277.702C277.461 252.354 277.12 253.197 276.678 253.901C276.236 254.604 275.663 255.146 274.96 255.528C274.277 255.91 273.443 256.101 272.458 256.101ZM273.362 253.328C274.066 253.328 274.689 253.167 275.231 252.846C275.774 252.524 276.226 252.102 276.587 251.58C276.949 251.058 277.22 250.495 277.401 249.892C277.602 249.269 277.702 248.687 277.702 248.144V247.722C277.702 247.321 277.642 246.889 277.522 246.426C277.421 245.944 277.25 245.472 277.009 245.01C276.788 244.528 276.507 244.096 276.165 243.714C275.824 243.332 275.412 243.031 274.93 242.81C274.468 242.569 273.945 242.448 273.362 242.448C272.519 242.448 271.805 242.689 271.223 243.172C270.66 243.634 270.228 244.277 269.927 245.1C269.625 245.924 269.475 246.868 269.475 247.933C269.475 249.018 269.625 249.973 269.927 250.796C270.248 251.6 270.7 252.223 271.283 252.665C271.866 253.107 272.559 253.328 273.362 253.328ZM285.845 256.071C285.102 256.071 284.539 255.91 284.158 255.588C283.796 255.267 283.615 254.765 283.615 254.082C283.615 253.378 283.806 252.866 284.188 252.544C284.569 252.223 285.122 252.062 285.845 252.062C286.609 252.062 287.181 252.223 287.563 252.544C287.945 252.866 288.136 253.378 288.136 254.082C288.136 255.408 287.372 256.071 285.845 256.071Z" fill="#7F7F81"/>
<rect y="293.846" width="382" height="134.868" rx="31.645" fill="#F3F3F3"/>
<path d="M31.7853 340.32C30.1578 340.32 28.7011 339.948 27.4152 339.204C26.1494 338.441 25.1448 337.306 24.4014 335.799C23.6781 334.292 23.3165 332.403 23.3165 330.133C23.3165 328.485 23.5174 327.019 23.9192 325.733C24.3211 324.447 24.9238 323.352 25.7275 322.448C26.5312 321.544 27.5057 320.85 28.6509 320.368C29.8162 319.886 31.1624 319.645 32.6894 319.645C33.8346 319.645 34.8694 319.785 35.7936 320.067C36.7179 320.348 37.5215 320.75 38.2047 321.272C38.8878 321.795 39.4303 322.428 39.8321 323.171C40.2541 323.914 40.4952 324.768 40.5554 325.733L37.4211 326.667C37.3608 325.662 37.0996 324.849 36.6375 324.226C36.1754 323.603 35.5827 323.151 34.8593 322.87C34.1561 322.588 33.4027 322.448 32.599 322.448C31.4136 322.448 30.3788 322.709 29.4948 323.231C28.6308 323.754 27.9577 324.577 27.4755 325.703C26.9933 326.808 26.7522 328.244 26.7522 330.012C26.7522 331.379 26.8928 332.544 27.1741 333.508C27.4755 334.453 27.8774 335.226 28.3797 335.829C28.902 336.412 29.5149 336.844 30.2181 337.125C30.9414 337.386 31.7149 337.517 32.5387 337.517C33.5433 337.517 34.4073 337.336 35.1306 336.974C35.8539 336.613 36.4366 336.06 36.8786 335.317C37.3206 334.573 37.5919 333.629 37.6923 332.484H33.4127V329.982H40.9472V333.177V339.928H38.4458L38.8376 334.623H38.3554C38.0741 335.889 37.6521 336.944 37.0896 337.788C36.5471 338.632 35.8438 339.265 34.9799 339.687C34.1159 340.109 33.0511 340.32 31.7853 340.32ZM51.6185 340.32C50.1116 340.32 48.7754 339.998 47.6101 339.355C46.4448 338.712 45.5306 337.778 44.8675 336.552C44.2246 335.327 43.9031 333.82 43.9031 332.032C43.9031 330.203 44.2447 328.686 44.9278 327.481C45.6109 326.275 46.5251 325.371 47.6704 324.768C48.8357 324.166 50.1417 323.864 51.5883 323.864C53.0751 323.864 54.4012 324.176 55.5665 324.798C56.7319 325.421 57.6461 326.346 58.3091 327.571C58.9922 328.797 59.3338 330.324 59.3338 332.152C59.3338 333.96 58.9922 335.477 58.3091 336.703C57.6461 337.908 56.7319 338.813 55.5665 339.415C54.4012 340.018 53.0852 340.32 51.6185 340.32ZM51.739 337.728C52.6432 337.728 53.4167 337.517 54.0596 337.095C54.7026 336.673 55.1948 336.05 55.5364 335.226C55.878 334.402 56.0488 333.418 56.0488 332.273C56.0488 331.087 55.8679 330.073 55.5063 329.229C55.1446 328.365 54.6222 327.702 53.9391 327.24C53.2761 326.777 52.4623 326.546 51.4979 326.546C50.6339 326.546 49.8705 326.757 49.2074 327.179C48.5645 327.581 48.0722 328.194 47.7306 329.018C47.3891 329.821 47.2183 330.806 47.2183 331.971C47.2183 333.8 47.6201 335.216 48.4238 336.221C49.2275 337.225 50.3326 337.728 51.739 337.728ZM62.6645 339.928V330.284V324.256H65.4975L65.3167 329.138H65.829C66.1103 327.933 66.482 326.948 66.9441 326.185C67.4263 325.401 68.0291 324.819 68.7524 324.437C69.4958 324.055 70.3598 323.864 71.3443 323.864C73.0923 323.864 74.4184 324.487 75.3225 325.733C76.2468 326.978 76.7089 328.877 76.7089 331.429V339.928H73.3937V331.76C73.3937 330.012 73.1325 328.736 72.6101 327.933C72.0877 327.109 71.3041 326.697 70.2593 326.697C69.3552 326.697 68.5816 326.988 67.9387 327.571C67.3158 328.134 66.8336 328.877 66.4921 329.801C66.1505 330.726 65.9596 331.73 65.9194 332.815V339.928H62.6645ZM87.6007 340.32C86.355 340.32 85.25 340.139 84.2855 339.777C83.3211 339.395 82.5074 338.863 81.8443 338.18C81.1813 337.477 80.679 336.643 80.3374 335.678C79.9959 334.694 79.8251 333.589 79.8251 332.363C79.8251 331.137 79.9959 330.012 80.3374 328.988C80.679 327.943 81.1612 327.039 81.7841 326.275C82.427 325.512 83.2106 324.919 84.1348 324.497C85.0792 324.075 86.144 323.864 87.3295 323.864C88.4345 323.864 89.419 324.045 90.283 324.407C91.1671 324.768 91.9105 325.321 92.5132 326.064C93.116 326.788 93.5681 327.702 93.8694 328.807C94.1708 329.892 94.2813 331.168 94.201 332.634L81.9348 332.725V330.675L92.2721 330.585L91.1269 331.851C91.2474 330.645 91.147 329.651 90.8255 328.867C90.504 328.083 90.0419 327.501 89.4391 327.119C88.8364 326.737 88.1432 326.546 87.3596 326.546C86.4756 326.546 85.702 326.777 85.039 327.24C84.396 327.682 83.8937 328.335 83.5321 329.199C83.1704 330.063 82.9896 331.097 82.9896 332.303C82.9896 334.111 83.3914 335.477 84.1951 336.402C84.9988 337.306 86.144 337.758 87.6309 337.758C88.2537 337.758 88.7862 337.687 89.2282 337.547C89.6702 337.386 90.0419 337.185 90.3433 336.944C90.6447 336.683 90.8858 336.381 91.0666 336.04C91.2675 335.678 91.4283 335.307 91.5488 334.925L94.4119 335.588C94.2311 336.331 93.9498 336.994 93.5681 337.577C93.2064 338.14 92.7443 338.632 92.1817 339.054C91.6191 339.456 90.9561 339.767 90.1926 339.988C89.4492 340.209 88.5852 340.32 87.6007 340.32Z" fill="black"/>
<path d="M27.9947 402.631V382.74H31.3099V402.631H27.9947ZM22.0273 385.573V382.74H37.3073V385.573H22.0273ZM39.922 402.631V393.017V381.384H43.2372V386.266C43.2372 386.688 43.2272 387.13 43.2071 387.592C43.187 388.034 43.1468 388.486 43.0865 388.948C43.0263 389.41 42.966 389.872 42.9057 390.335C42.8454 390.797 42.7751 391.269 42.6948 391.751H43.2372C43.5386 390.626 43.9103 389.682 44.3523 388.918C44.8145 388.134 45.3871 387.552 46.0702 387.17C46.7734 386.768 47.6173 386.567 48.6018 386.567C50.4101 386.567 51.7563 387.2 52.6403 388.466C53.5244 389.712 53.9664 391.59 53.9664 394.102V402.631H50.6512V394.524C50.6512 392.756 50.38 391.46 49.8375 390.636C49.3151 389.812 48.5214 389.4 47.4566 389.4C46.5725 389.4 45.8291 389.661 45.2263 390.184C44.6437 390.706 44.1816 391.409 43.84 392.294C43.4984 393.178 43.2774 394.182 43.177 395.307V402.631H39.922ZM64.8582 403.023C63.6125 403.023 62.5075 402.842 61.5431 402.48C60.5786 402.098 59.7649 401.566 59.1019 400.883C58.4388 400.18 57.9365 399.346 57.595 398.381C57.2534 397.397 57.0826 396.292 57.0826 395.066C57.0826 393.841 57.2534 392.715 57.595 391.691C57.9365 390.646 58.4187 389.742 59.0416 388.978C59.6845 388.215 60.4681 387.622 61.3924 387.2C62.3367 386.778 63.4016 386.567 64.587 386.567C65.6921 386.567 66.6766 386.748 67.5405 387.11C68.4246 387.471 69.168 388.024 69.7707 388.767C70.3735 389.491 70.8256 390.405 71.127 391.51C71.4283 392.595 71.5388 393.871 71.4585 395.337L59.1923 395.428V393.378L69.5296 393.288L68.3844 394.554C68.5049 393.348 68.4045 392.354 68.083 391.57C67.7615 390.787 67.2994 390.204 66.6967 389.822C66.0939 389.44 65.4007 389.25 64.6171 389.25C63.7331 389.25 62.9595 389.481 62.2965 389.943C61.6536 390.385 61.1513 391.038 60.7896 391.902C60.4279 392.766 60.2471 393.8 60.2471 395.006C60.2471 396.814 60.649 398.18 61.4526 399.105C62.2563 400.009 63.4016 400.461 64.8884 400.461C65.5112 400.461 66.0437 400.391 66.4857 400.25C66.9277 400.089 67.2994 399.888 67.6008 399.647C67.9022 399.386 68.1433 399.085 68.3241 398.743C68.525 398.381 68.6858 398.01 68.8063 397.628L71.6694 398.291C71.4886 399.034 71.2073 399.697 70.8256 400.28C70.4639 400.843 70.0018 401.335 69.4392 401.757C68.8766 402.159 68.2136 402.47 67.4501 402.691C66.7067 402.912 65.8427 403.023 64.8582 403.023ZM74.8434 402.631V392.987V386.959H77.6763L77.4955 391.841H78.0079C78.2891 390.636 78.6608 389.651 79.123 388.888C79.6052 388.104 80.2079 387.522 80.9312 387.14C81.6747 386.758 82.5386 386.567 83.5231 386.567C85.2711 386.567 86.5972 387.19 87.5013 388.436C88.4256 389.682 88.8877 391.58 88.8877 394.132V402.631H85.5725V394.463C85.5725 392.715 85.3113 391.44 84.7889 390.636C84.2665 389.812 83.4829 389.4 82.4381 389.4C81.534 389.4 80.7605 389.692 80.1175 390.274C79.4947 390.837 79.0125 391.58 78.6709 392.504C78.3293 393.429 78.1385 394.433 78.0983 395.518V402.631H74.8434ZM105.569 403.023C104.243 403.023 103.098 402.681 102.133 401.998C101.169 401.295 100.435 400.33 99.9331 399.105C99.4308 397.859 99.1796 396.422 99.1796 394.795C99.1796 393.208 99.4107 391.801 99.8728 390.576C100.355 389.33 101.058 388.355 101.982 387.652C102.927 386.949 104.082 386.597 105.448 386.597C106.533 386.597 107.427 386.818 108.131 387.26C108.834 387.682 109.396 388.265 109.818 389.008C110.26 389.752 110.592 390.576 110.813 391.48H111.416C111.315 390.897 111.215 390.294 111.114 389.671C111.014 389.029 110.933 388.416 110.873 387.833C110.813 387.23 110.783 386.698 110.783 386.236V381.384H114.098V394.916V402.631H111.235L111.355 398.291H110.813C110.572 399.275 110.23 400.119 109.788 400.823C109.346 401.526 108.774 402.068 108.07 402.45C107.387 402.832 106.553 403.023 105.569 403.023ZM106.473 400.25C107.176 400.25 107.799 400.089 108.342 399.768C108.884 399.446 109.336 399.024 109.698 398.502C110.059 397.98 110.331 397.417 110.512 396.814C110.712 396.191 110.813 395.609 110.813 395.066V394.644C110.813 394.242 110.753 393.81 110.632 393.348C110.532 392.866 110.361 392.394 110.12 391.932C109.899 391.45 109.617 391.018 109.276 390.636C108.934 390.254 108.522 389.953 108.04 389.732C107.578 389.491 107.056 389.37 106.473 389.37C105.629 389.37 104.916 389.611 104.333 390.093C103.771 390.556 103.339 391.198 103.037 392.022C102.736 392.846 102.585 393.79 102.585 394.855C102.585 395.94 102.736 396.895 103.037 397.718C103.359 398.522 103.811 399.145 104.393 399.587C104.976 400.029 105.669 400.25 106.473 400.25ZM118.293 402.631V386.959H121.548V402.631H118.293ZM119.92 384.337C119.217 384.337 118.685 384.196 118.323 383.915C117.961 383.614 117.78 383.172 117.78 382.589C117.78 382.026 117.961 381.594 118.323 381.293C118.685 380.992 119.217 380.841 119.92 380.841C120.644 380.841 121.186 380.992 121.548 381.293C121.909 381.594 122.09 382.026 122.09 382.589C122.09 383.172 121.909 383.614 121.548 383.915C121.186 384.196 120.644 384.337 119.92 384.337ZM131.758 403.023C130.673 403.023 129.709 402.912 128.865 402.691C128.021 402.47 127.298 402.159 126.695 401.757C126.112 401.335 125.66 400.833 125.339 400.25C125.017 399.667 124.826 399.034 124.766 398.351L127.418 397.477C127.418 398.06 127.599 398.582 127.961 399.044C128.322 399.507 128.835 399.868 129.498 400.129C130.181 400.371 130.995 400.491 131.939 400.491C133.044 400.491 133.898 400.31 134.501 399.949C135.103 399.587 135.405 399.085 135.405 398.442C135.405 397.959 135.234 397.578 134.893 397.296C134.571 397.015 134.099 396.784 133.476 396.603C132.873 396.422 132.16 396.252 131.336 396.091C130.593 395.93 129.849 395.749 129.106 395.548C128.383 395.327 127.71 395.046 127.087 394.705C126.484 394.363 125.992 393.921 125.61 393.378C125.248 392.816 125.067 392.113 125.067 391.269C125.067 390.304 125.319 389.481 125.821 388.797C126.323 388.094 127.047 387.552 127.991 387.17C128.955 386.768 130.101 386.567 131.427 386.567C132.713 386.567 133.818 386.758 134.742 387.14C135.686 387.522 136.44 388.054 137.002 388.737C137.565 389.42 137.906 390.224 138.027 391.148L135.254 391.962C135.214 391.339 135.023 390.817 134.682 390.395C134.36 389.973 133.918 389.661 133.355 389.461C132.793 389.24 132.13 389.129 131.366 389.129C130.362 389.129 129.568 389.31 128.985 389.671C128.423 390.033 128.142 390.525 128.142 391.148C128.142 391.63 128.312 392.022 128.654 392.324C129.016 392.605 129.498 392.836 130.101 393.017C130.723 393.178 131.427 393.338 132.21 393.499C133.014 393.66 133.787 393.841 134.531 394.042C135.274 394.242 135.937 394.514 136.52 394.855C137.123 395.177 137.595 395.619 137.936 396.181C138.298 396.724 138.479 397.417 138.479 398.261C138.479 399.286 138.198 400.16 137.635 400.883C137.093 401.586 136.319 402.119 135.314 402.48C134.31 402.842 133.124 403.023 131.758 403.023ZM145.411 403.023C144.547 403.023 143.774 402.862 143.091 402.54C142.407 402.199 141.865 401.697 141.463 401.034C141.081 400.371 140.89 399.547 140.89 398.562C140.89 397.779 141.031 397.106 141.312 396.543C141.614 395.96 142.056 395.478 142.638 395.096C143.241 394.695 144.005 394.373 144.929 394.132C145.853 393.871 146.948 393.65 148.214 393.469C148.917 393.368 149.49 393.268 149.932 393.168C150.394 393.067 150.726 392.906 150.926 392.685C151.147 392.464 151.258 392.133 151.258 391.691C151.258 391.008 151.017 390.425 150.535 389.943C150.073 389.44 149.319 389.189 148.274 389.189C147.692 389.189 147.109 389.29 146.526 389.491C145.964 389.692 145.471 390.023 145.05 390.485C144.648 390.927 144.376 391.53 144.236 392.294L141.282 391.359C141.463 390.596 141.754 389.923 142.156 389.34C142.558 388.737 143.06 388.235 143.663 387.833C144.266 387.411 144.959 387.1 145.743 386.899C146.546 386.678 147.42 386.567 148.365 386.567C149.751 386.567 150.896 386.798 151.8 387.26C152.705 387.723 153.378 388.436 153.82 389.4C154.282 390.345 154.513 391.56 154.513 393.047V396.242C154.513 396.905 154.523 397.608 154.543 398.351C154.583 399.075 154.623 399.808 154.664 400.551C154.724 401.275 154.794 401.968 154.875 402.631H151.891C151.831 402.028 151.77 401.405 151.71 400.762C151.67 400.119 151.63 399.466 151.589 398.803H151.137C150.856 399.567 150.454 400.27 149.932 400.913C149.43 401.556 148.797 402.068 148.033 402.45C147.29 402.832 146.416 403.023 145.411 403.023ZM146.556 400.491C146.978 400.491 147.4 400.421 147.822 400.28C148.264 400.139 148.696 399.928 149.118 399.647C149.56 399.346 149.962 398.964 150.324 398.502C150.705 398.04 151.037 397.487 151.318 396.844L151.288 394.011L152.072 394.162C151.73 394.463 151.298 394.695 150.776 394.855C150.273 395.016 149.721 395.147 149.118 395.247C148.515 395.327 147.913 395.428 147.31 395.548C146.727 395.649 146.185 395.8 145.682 396C145.2 396.181 144.808 396.443 144.507 396.784C144.226 397.126 144.085 397.598 144.085 398.201C144.085 398.944 144.316 399.517 144.778 399.918C145.24 400.3 145.833 400.491 146.556 400.491ZM158.593 407.574V394.855V386.959H161.426L161.336 391.088L161.818 391.118C162.039 390.174 162.37 389.37 162.812 388.707C163.254 388.024 163.817 387.502 164.5 387.14C165.203 386.758 166.037 386.567 167.002 386.567C168.408 386.567 169.593 386.919 170.558 387.622C171.542 388.325 172.276 389.3 172.758 390.545C173.26 391.791 173.511 393.218 173.511 394.825C173.511 396.392 173.27 397.799 172.788 399.044C172.326 400.27 171.623 401.245 170.678 401.968C169.734 402.671 168.579 403.023 167.213 403.023C166.148 403.023 165.264 402.812 164.56 402.39C163.857 401.948 163.285 401.375 162.842 400.672C162.4 399.949 162.059 399.155 161.818 398.291H161.275C161.396 398.833 161.496 399.396 161.577 399.979C161.657 400.541 161.727 401.104 161.788 401.666C161.848 402.229 161.878 402.761 161.878 403.264V407.574H158.593ZM166.248 400.28C167.072 400.28 167.765 400.049 168.328 399.587C168.91 399.105 169.352 398.452 169.654 397.628C169.955 396.804 170.106 395.86 170.106 394.795C170.106 393.69 169.945 392.736 169.624 391.932C169.322 391.128 168.88 390.505 168.297 390.063C167.715 389.601 167.022 389.37 166.218 389.37C165.515 389.37 164.892 389.531 164.349 389.852C163.807 390.174 163.345 390.596 162.963 391.118C162.601 391.62 162.32 392.183 162.119 392.806C161.938 393.409 161.848 394.001 161.848 394.584V395.036C161.848 395.438 161.908 395.87 162.029 396.332C162.149 396.794 162.32 397.256 162.541 397.718C162.782 398.18 163.074 398.612 163.415 399.014C163.777 399.396 164.189 399.707 164.651 399.949C165.133 400.17 165.665 400.28 166.248 400.28ZM176.922 407.574V394.855V386.959H179.755L179.664 391.088L180.147 391.118C180.368 390.174 180.699 389.37 181.141 388.707C181.583 388.024 182.146 387.502 182.829 387.14C183.532 386.758 184.366 386.567 185.33 386.567C186.737 386.567 187.922 386.919 188.887 387.622C189.871 388.325 190.605 389.3 191.087 390.545C191.589 391.791 191.84 393.218 191.84 394.825C191.84 396.392 191.599 397.799 191.117 399.044C190.655 400.27 189.952 401.245 189.007 401.968C188.063 402.671 186.908 403.023 185.541 403.023C184.477 403.023 183.592 402.812 182.889 402.39C182.186 401.948 181.613 401.375 181.171 400.672C180.729 399.949 180.388 399.155 180.147 398.291H179.604C179.725 398.833 179.825 399.396 179.906 399.979C179.986 400.541 180.056 401.104 180.117 401.666C180.177 402.229 180.207 402.761 180.207 403.264V407.574H176.922ZM184.577 400.28C185.401 400.28 186.094 400.049 186.657 399.587C187.239 399.105 187.681 398.452 187.983 397.628C188.284 396.804 188.435 395.86 188.435 394.795C188.435 393.69 188.274 392.736 187.952 391.932C187.651 391.128 187.209 390.505 186.626 390.063C186.044 389.601 185.351 389.37 184.547 389.37C183.844 389.37 183.221 389.531 182.678 389.852C182.136 390.174 181.674 390.596 181.292 391.118C180.93 391.62 180.649 392.183 180.448 392.806C180.267 393.409 180.177 394.001 180.177 394.584V395.036C180.177 395.438 180.237 395.87 180.358 396.332C180.478 396.794 180.649 397.256 180.87 397.718C181.111 398.18 181.402 398.612 181.744 399.014C182.106 399.396 182.518 399.707 182.98 399.949C183.462 400.17 183.994 400.28 184.577 400.28ZM202.182 403.023C200.936 403.023 199.831 402.842 198.867 402.48C197.902 402.098 197.089 401.566 196.425 400.883C195.762 400.18 195.26 399.346 194.919 398.381C194.577 397.397 194.406 396.292 194.406 395.066C194.406 393.841 194.577 392.715 194.919 391.691C195.26 390.646 195.742 389.742 196.365 388.978C197.008 388.215 197.792 387.622 198.716 387.2C199.66 386.778 200.725 386.567 201.911 386.567C203.016 386.567 204 386.748 204.864 387.11C205.748 387.471 206.492 388.024 207.094 388.767C207.697 389.491 208.149 390.405 208.451 391.51C208.752 392.595 208.862 393.871 208.782 395.337L196.516 395.428V393.378L206.853 393.288L205.708 394.554C205.829 393.348 205.728 392.354 205.407 391.57C205.085 390.787 204.623 390.204 204.02 389.822C203.418 389.44 202.724 389.25 201.941 389.25C201.057 389.25 200.283 389.481 199.62 389.943C198.977 390.385 198.475 391.038 198.113 391.902C197.752 392.766 197.571 393.8 197.571 395.006C197.571 396.814 197.973 398.18 198.776 399.105C199.58 400.009 200.725 400.461 202.212 400.461C202.835 400.461 203.367 400.391 203.809 400.25C204.251 400.089 204.623 399.888 204.924 399.647C205.226 399.386 205.467 399.085 205.648 398.743C205.849 398.381 206.009 398.01 206.13 397.628L208.993 398.291C208.812 399.034 208.531 399.697 208.149 400.28C207.788 400.843 207.325 401.335 206.763 401.757C206.2 402.159 205.537 402.47 204.774 402.691C204.03 402.912 203.166 403.023 202.182 403.023ZM215.872 403.023C215.008 403.023 214.234 402.862 213.551 402.54C212.868 402.199 212.326 401.697 211.924 401.034C211.542 400.371 211.351 399.547 211.351 398.562C211.351 397.779 211.492 397.106 211.773 396.543C212.074 395.96 212.516 395.478 213.099 395.096C213.702 394.695 214.465 394.373 215.39 394.132C216.314 393.871 217.409 393.65 218.675 393.469C219.378 393.368 219.951 393.268 220.393 393.168C220.855 393.067 221.186 392.906 221.387 392.685C221.608 392.464 221.719 392.133 221.719 391.691C221.719 391.008 221.478 390.425 220.995 389.943C220.533 389.44 219.78 389.189 218.735 389.189C218.152 389.189 217.57 389.29 216.987 389.491C216.424 389.692 215.932 390.023 215.51 390.485C215.108 390.927 214.837 391.53 214.696 392.294L211.743 391.359C211.924 390.596 212.215 389.923 212.617 389.34C213.019 388.737 213.521 388.235 214.124 387.833C214.727 387.411 215.42 387.1 216.203 386.899C217.007 386.678 217.881 386.567 218.825 386.567C220.212 386.567 221.357 386.798 222.261 387.26C223.165 387.723 223.838 388.436 224.28 389.4C224.742 390.345 224.974 391.56 224.974 393.047V396.242C224.974 396.905 224.984 397.608 225.004 398.351C225.044 399.075 225.084 399.808 225.124 400.551C225.185 401.275 225.255 401.968 225.335 402.631H222.352C222.291 402.028 222.231 401.405 222.171 400.762C222.131 400.119 222.09 399.466 222.05 398.803H221.598C221.317 399.567 220.915 400.27 220.393 400.913C219.89 401.556 219.257 402.068 218.494 402.45C217.75 402.832 216.876 403.023 215.872 403.023ZM217.017 400.491C217.439 400.491 217.861 400.421 218.283 400.28C218.725 400.139 219.157 399.928 219.579 399.647C220.021 399.346 220.423 398.964 220.784 398.502C221.166 398.04 221.498 397.487 221.779 396.844L221.749 394.011L222.532 394.162C222.191 394.463 221.759 394.695 221.236 394.855C220.734 395.016 220.182 395.147 219.579 395.247C218.976 395.327 218.373 395.428 217.771 395.548C217.188 395.649 216.645 395.8 216.143 396C215.661 396.181 215.269 396.443 214.968 396.784C214.686 397.126 214.546 397.598 214.546 398.201C214.546 398.944 214.777 399.517 215.239 399.918C215.701 400.3 216.294 400.491 217.017 400.491ZM229.054 402.631V394.463V386.959H231.887L231.736 392.384H232.248C232.429 391.158 232.71 390.114 233.092 389.25C233.474 388.386 233.996 387.733 234.659 387.291C235.322 386.828 236.146 386.597 237.131 386.597C237.332 386.597 237.553 386.607 237.794 386.628C238.035 386.648 238.306 386.708 238.607 386.808L238.457 390.244C238.155 390.124 237.844 390.043 237.523 390.003C237.201 389.943 236.91 389.913 236.649 389.913C235.845 389.913 235.162 390.144 234.599 390.606C234.037 391.048 233.564 391.671 233.183 392.474C232.821 393.258 232.54 394.172 232.339 395.217V402.631H229.054ZM247.052 403.023C245.967 403.023 245.002 402.912 244.158 402.691C243.314 402.47 242.591 402.159 241.988 401.757C241.406 401.335 240.954 400.833 240.632 400.25C240.311 399.667 240.12 399.034 240.06 398.351L242.712 397.477C242.712 398.06 242.892 398.582 243.254 399.044C243.616 399.507 244.128 399.868 244.791 400.129C245.474 400.371 246.288 400.491 247.232 400.491C248.337 400.491 249.191 400.31 249.794 399.949C250.397 399.587 250.698 399.085 250.698 398.442C250.698 397.959 250.527 397.578 250.186 397.296C249.864 397.015 249.392 396.784 248.769 396.603C248.167 396.422 247.453 396.252 246.63 396.091C245.886 395.93 245.143 395.749 244.399 395.548C243.676 395.327 243.003 395.046 242.38 394.705C241.777 394.363 241.285 393.921 240.903 393.378C240.542 392.816 240.361 392.113 240.361 391.269C240.361 390.304 240.612 389.481 241.114 388.797C241.617 388.094 242.34 387.552 243.284 387.17C244.249 386.768 245.394 386.567 246.72 386.567C248.006 386.567 249.111 386.758 250.035 387.14C250.98 387.522 251.733 388.054 252.296 388.737C252.858 389.42 253.2 390.224 253.32 391.148L250.548 391.962C250.507 391.339 250.317 390.817 249.975 390.395C249.653 389.973 249.211 389.661 248.649 389.461C248.086 389.24 247.423 389.129 246.66 389.129C245.655 389.129 244.862 389.31 244.279 389.671C243.716 390.033 243.435 390.525 243.435 391.148C243.435 391.63 243.606 392.022 243.947 392.324C244.309 392.605 244.791 392.836 245.394 393.017C246.017 393.178 246.72 393.338 247.504 393.499C248.307 393.66 249.081 393.841 249.824 394.042C250.568 394.242 251.231 394.514 251.813 394.855C252.416 395.177 252.888 395.619 253.23 396.181C253.592 396.724 253.772 397.417 253.772 398.261C253.772 399.286 253.491 400.16 252.928 400.883C252.386 401.586 251.612 402.119 250.608 402.48C249.603 402.842 248.418 403.023 247.052 403.023ZM257.869 402.993C257.125 402.993 256.563 402.832 256.181 402.51C255.819 402.189 255.639 401.687 255.639 401.003C255.639 400.3 255.829 399.788 256.211 399.466C256.593 399.145 257.145 398.984 257.869 398.984C258.632 398.984 259.205 399.145 259.587 399.466C259.968 399.788 260.159 400.3 260.159 401.003C260.159 402.329 259.396 402.993 257.869 402.993Z" fill="#7F7F81"/>
</svg>
